<svg width="90" height="24" viewBox="0 0 90 24" fill="none" xmlns="http://www.w3.org/2000/svg">
<path fill-rule="evenodd" clip-rule="evenodd" d="M22.3958 18.5707C22.3958 18.5707 22.2248 19.3898 22.9733 19.4576C23.3518 19.4699 23.7542 19.4699 24.1771 19.4699C26.8759 19.4699 29.3448 18.4677 29.4001 16.0061C29.451 13.8244 27.5296 13.1668 25.2143 13.1668H23.5807L22.3958 18.5707ZM34.6401 16.1264C34.6401 19.3913 31.9274 23.6987 22.5449 23.1686C21.4454 23.1059 20.7697 23.0141 19.7778 22.7679C16.2438 21.8891 17.4869 17.676 17.4869 17.676L21.0828 1.37273C23.0615 1.047 25.2806 0.849216 27.56 0.849216C32.5781 0.849216 35.9032 2.65832 35.9032 6.04407C35.9032 9.2142 32.8748 10.9372 30.5824 11.3276C32.3991 11.4647 34.6401 12.8813 34.6401 16.1264ZM25.4656 4.63514L24.5585 8.83547C24.5585 8.83547 24.3331 9.73467 25.1016 9.73467H26.1597C28.882 9.73467 30.7674 8.65706 30.8148 6.75875C30.8532 5.1928 29.5188 4.51433 27.6238 4.51433C26.7576 4.51433 25.8481 4.57397 25.4656 4.63514ZM57.5819 23.2274H54.6034L59.3263 1.49376C61.2795 1.03244 63.3355 0.941194 65.7167 0.961584C71.5287 0.985032 74.193 3.2315 74.193 7.14739C74.193 10.7355 71.3975 16.015 63.359 16.015C62.5357 16.015 61.8276 15.9197 61.3164 15.885C61.3164 15.885 60.6617 18.9068 60.2722 20.6874C59.7815 22.9226 58.3439 23.2274 57.5819 23.2274ZM64.0432 4.79334L62.7302 10.8532C62.7302 10.8532 62.3068 12.1414 63.8183 12.1414C64.0048 12.1495 64.2072 12.1551 64.4301 12.1551C67.8091 12.1286 69.5445 9.87604 69.5445 7.54394C69.5445 5.24956 67.9936 4.68527 66.1266 4.68527C65.1732 4.68527 64.4576 4.73115 64.0432 4.79334ZM42.8129 13.6254C42.8129 17.056 44.7622 19.2495 48.1062 19.2495C49.483 19.2495 50.9875 19.0135 53.0166 17.4924L52.2212 21.1462C52.2212 21.1462 52.0003 22.3584 50.6823 22.8294C49.6117 23.2398 48.4822 23.4264 46.7703 23.4264C42.0015 23.4264 37.348 21.0265 37.348 13.9155C37.348 7.26373 41.5178 0.50293 49.5673 0.50293C51.1466 0.50293 52.2631 0.730278 53.6928 1.2018C55.8974 1.9287 56.1652 3.14904 56.0191 3.88053C55.87 4.62935 55.3499 6.42877 55.3499 6.42877C53.9631 5.16255 51.5475 4.80623 50.2046 4.80623C45.0594 4.80623 42.8129 10.0877 42.8129 13.6254ZM8.81534 10.7857C7.01614 8.7916 5.11821 7.58604 3.71696 6.8989C3.71696 6.8989 3.03428 6.55278 2.67773 6.35398C3.19735 5.16014 3.88102 4.30733 3.88102 4.30733C3.97776 4.17837 6.04873 1.69079 7.87036 2.5645C9.86005 3.4795 10.0625 7.67932 8.81534 10.7857ZM82.7314 10.7857C80.9322 8.7916 79.0343 7.58604 77.633 6.8989C77.633 6.8989 76.9504 6.55278 76.5938 6.35398C77.1134 5.16014 77.7971 4.30733 77.7971 4.30733C77.8938 4.17837 79.9648 1.69079 81.7865 2.5645C83.7761 3.4795 83.9786 7.67932 82.7314 10.7857Z" fill="#202E44"/>
<path fill-rule="evenodd" clip-rule="evenodd" d="M14.9878 13.9614C13.048 17.1285 7.75613 20.7386 6.25663 21.2799C3.34043 22.5273 1.3662 20.214 1.19765 19.9714C0.653604 19.2552 0.521457 19.1038 0.25816 18.5813C0.206798 18.6679 5.8562 15.9816 7.8803 12.5061C10.0724 9.521 10.2634 3.66551 7.86933 2.56445C8.59339 2.93708 10.2993 3.93823 11.8387 5.34055C13.3746 6.6715 14.7021 8.41689 14.6736 8.39446C14.8357 8.61926 16.7596 11.0671 14.9878 13.9614ZM88.5897 8.39446C88.7518 8.61926 90.6756 11.0671 88.9039 13.9614C86.9645 17.1285 81.6722 20.7386 80.1727 21.2799C77.2565 22.5273 75.2823 20.214 75.1137 19.9714C74.5697 19.2552 74.4375 19.1038 74.1742 18.5813C74.1228 18.6679 79.7728 15.9816 81.7964 12.5061C83.9885 9.521 84.1795 3.66551 81.7854 2.56445C82.5094 2.93708 84.2154 3.93823 85.7548 5.34055C87.2907 6.6715 88.6186 8.41689 88.5897 8.39446Z" fill="#202E44"/>
</svg>
