<svg width="401" height="433" viewBox="0 0 401 433" fill="none" xmlns="http://www.w3.org/2000/svg">
<path fill-rule="evenodd" clip-rule="evenodd" d="M133.627 167.575C110.273 173.746 89.7494 155.093 75.7962 149.854C61.8431 144.614 22.1324 144.834 18.16 189.335C16.4692 208.347 28.4608 227.458 40.9455 240.618C48.2292 248.28 74.9128 265.854 70.8351 278.56C69.7294 282.014 66.5 284.224 64.0077 286.841C51.564 299.889 53.222 319.374 65.1778 333.888C87.0917 360.492 120.92 369.392 195.09 362.513C221.176 389.482 379.111 376.414 339.728 319.624C300.346 262.835 323.956 279.815 330.427 251.096C334.612 216.598 303.089 218.117 308.01 204.922C318.88 175.743 321.875 148.492 305.242 120.881C290.903 97.0778 265.717 83.9766 238.086 87.5952C157.087 98.1975 173.316 157.097 133.627 167.575Z" fill="#8B83FF"/>
<path fill-rule="evenodd" clip-rule="evenodd" d="M206.29 59.9525C206.29 59.9525 192.055 43.6997 166.785 57.6525C149.251 67.3339 142.305 97.514 166.454 115.564L186.898 121.58L230.722 146.286C230.722 146.286 232.783 149.756 241.311 149.87C255.493 150.061 270.314 139.118 271.209 129.133C272.278 117.193 254.684 120.24 250.994 118.511C259.699 117.903 263.889 112.263 258.832 112.875C247.205 114.284 227.272 116.492 227.656 90.7616C227.969 69.7277 219.236 58.6396 206.29 59.9525" fill="#FD5C00"/>
<path fill-rule="evenodd" clip-rule="evenodd" d="M189.304 69.6738L189.326 69.9118L189.339 70.1938L189.342 70.371L189.34 70.6784L189.332 70.9091L189.317 71.1591L189.294 71.4269L189.262 71.7113L189.22 72.0109C189.212 72.0621 189.204 72.1138 189.195 72.1661L189.136 72.4862L189.064 72.8184L188.978 73.1613C188.384 75.3644 186.872 78.1358 183.13 79.9937L183.307 79.9968L183.749 79.9895L184.068 79.975L184.446 79.9494L184.728 79.9248L185.033 79.8932L185.529 79.8309L185.885 79.7781L186.26 79.7154L186.652 79.642L187.059 79.557L187.482 79.4595C187.625 79.4249 187.771 79.388 187.918 79.3488L188.367 79.224L188.826 79.0842C189.291 78.9367 189.771 78.7655 190.26 78.5669L190.752 78.359C193.557 77.1276 196.607 74.9752 198.908 71.2174L198.927 71.5677L198.969 72.0381L199.028 72.5386L199.09 72.9795L199.172 73.4716L199.238 73.8259L199.313 74.1997L199.4 74.5917L199.498 75.0006C199.515 75.07 199.533 75.1402 199.552 75.2109L199.668 75.6426C199.689 75.7157 199.71 75.7894 199.731 75.8636L199.868 76.3151C199.892 76.3914 199.917 76.4681 199.942 76.5453L200.1 77.0138L200.274 77.4918L200.464 77.9782C201.389 80.2654 202.862 82.7814 205.209 84.9253L205.464 85.1536C207.926 87.3169 209.154 89.7409 209.736 91.9101L209.847 92.3551C209.915 92.6491 209.972 92.9376 210.018 93.2192L210.081 93.6363C210.099 93.7735 210.115 93.9088 210.13 94.042L210.166 94.4354L210.19 94.8155C210.193 94.8776 210.196 94.9392 210.198 95.0002L210.208 95.3583L210.206 95.8653L210.195 96.1818L210.169 96.6216L210.134 97.0165L210.08 97.4673L210.001 97.9646L209.949 98.2514L209.947 98.2782L209.902 98.5498C209.899 98.5743 209.895 98.5999 209.892 98.6265L209.879 98.7964C209.862 99.2152 209.96 99.7736 210.577 100.136C211.325 100.575 211.866 100.258 212.283 99.7911L212.426 99.6212C212.449 99.5921 212.471 99.5628 212.493 99.5334L212.622 99.3559L213.076 98.6839L214.732 96.152L214.937 95.8288C214.942 95.8208 214.944 95.8158 214.945 95.8141L215.038 95.6807L215.125 95.5711L215.238 95.4432C215.596 95.0634 216.262 94.5721 217.117 94.9029L217.275 94.9726L217.338 95.0118L217.412 95.0645L217.503 95.1389L217.604 95.2351C217.933 95.5747 218.309 96.2483 217.721 97.2983L217.604 97.4903L217.26 98.0144L216.95 98.5096L216.671 98.9709L216.36 99.5023L216.139 99.8925L215.91 100.309L215.674 100.751L215.433 101.215L215.191 101.7C215.15 101.783 215.11 101.866 215.069 101.95L214.828 102.463L214.589 102.993L214.356 103.538L214.13 104.095L213.914 104.662L213.71 105.239C213.052 107.175 212.627 109.231 212.795 111.099L212.891 112.118L212.958 112.777L213.031 113.423L213.109 114.058L213.196 114.683L213.293 115.3C213.922 119.085 215.195 122.537 218.801 127.67L219.098 128.09C219.449 128.581 219.787 129.062 220.117 129.534L221.087 130.925C221.247 131.153 221.406 131.378 221.564 131.602L221.882 132.047L222.2 132.487L222.686 133.145L223.191 133.807L223.534 134.243L223.885 134.674L224.243 135.102L224.611 135.526L224.99 135.947C225.118 136.087 225.248 136.226 225.38 136.365L225.784 136.78L226.201 137.192L226.635 137.602C227.812 138.692 229.168 139.759 230.807 140.821L231.435 141.219C232.826 142.081 234.412 142.943 236.25 143.813L237.116 144.215C237.411 144.35 237.712 144.484 238.019 144.619L238.961 145.025L239.942 145.432C240.109 145.5 240.277 145.569 240.448 145.637L241.49 146.048L242.949 146.61L243.864 146.971C244.016 147.032 244.167 147.093 244.318 147.154L245.223 147.525L246.121 147.903C246.42 148.03 246.717 148.159 247.014 148.289L247.902 148.684L248.785 149.088L249.664 149.503L250.541 149.928L251.414 150.365L252.285 150.815L253.155 151.277C253.3 151.355 253.445 151.434 253.589 151.513L254.458 151.996C254.602 152.078 254.747 152.161 254.892 152.244L255.76 152.749C256.049 152.92 256.339 153.094 256.629 153.271L257.499 153.809C257.789 153.991 258.08 154.176 258.371 154.364L259.245 154.937L260.122 155.529C261.001 156.131 261.885 156.761 262.776 157.424L263.671 158.098C264.568 158.782 265.474 159.5 266.391 160.255L267.311 161.022C267.465 161.151 267.62 161.282 267.775 161.414L268.708 162.219C270.738 163.99 272.831 165.946 275.013 168.117L276.026 169.135C276.196 169.307 276.366 169.481 276.537 169.656L277.57 170.721C277.743 170.901 277.917 171.083 278.092 171.266L279.146 172.38C279.322 172.568 279.5 172.758 279.678 172.949L280.754 174.114L281.846 175.313C282.58 176.125 283.324 176.96 284.079 177.819L285.222 179.126C285.413 179.347 285.606 179.57 285.799 179.794L286.969 181.158C287.165 181.388 287.362 181.621 287.56 181.854L288.758 183.276L289.975 184.738L291.507 186.595L293.056 188.484L294.621 190.405L296.202 192.354L306.016 204.513L308.554 207.642L311.125 210.79L312.856 212.896C313.146 213.247 313.436 213.599 313.727 213.95L315.48 216.06L317.246 218.17L319.026 220.277L320.819 222.379C332.518 236.021 345.05 249.207 358.184 259.102C358.321 258.42 358.538 257.736 358.84 257.056C359.383 255.835 360.186 254.705 361.245 253.685C362.424 252.549 363.752 251.738 365.186 251.249C368.129 250.245 371.101 250.654 373.895 251.875C374.887 252.309 375.652 252.754 376.141 253.096C377.527 254.063 377.947 255.897 377.182 257.355C378.646 256.711 380.403 257.205 381.3 258.591C381.577 259.019 381.932 259.672 382.276 260.511C383.143 262.619 383.502 264.836 382.986 267.074C382.607 268.718 381.766 270.215 380.456 271.465C378.743 273.099 376.76 273.99 374.598 274.234L374.477 274.363C376.835 275.779 379.219 277.153 381.603 278.48L382.91 279.202L384.176 279.892L385.398 280.549L386.575 281.172L388.017 281.924L389.147 282.501L389.972 282.914C392.065 283.939 392.93 286.466 391.905 288.558C390.88 290.65 388.353 291.516 386.26 290.491L385.733 290.229L385.252 289.984C385.428 290.838 385.342 291.753 384.948 292.605C383.998 294.655 381.611 295.582 379.539 294.744L379.278 294.629L378.157 294.095L377.254 293.655L376.923 293.491C376.953 294.173 376.818 294.872 376.496 295.529C375.471 297.621 372.944 298.486 370.851 297.462L369.93 297.001L368.409 296.222L367.238 295.61L366.018 294.964L364.752 294.283L363.441 293.569L362.089 292.822C355.77 289.305 349.448 285.461 343.505 281.393L342.507 280.769L341.475 280.116L340.412 279.434L339.316 278.723C339.131 278.602 338.945 278.48 338.757 278.356L337.616 277.602L336.445 276.818L335.246 276.005C335.043 275.867 334.84 275.728 334.635 275.588L333.394 274.731C333.184 274.586 332.974 274.439 332.763 274.291L331.481 273.391L330.174 272.46L328.841 271.501C328.617 271.338 328.392 271.175 328.166 271.01L326.797 270.006L325.405 268.972C325.172 268.798 324.937 268.622 324.701 268.444L323.276 267.366L321.83 266.258L320.364 265.121C320.118 264.928 319.871 264.735 319.623 264.541L318.127 263.358C317.876 263.158 317.625 262.957 317.372 262.755L315.849 261.528C315.594 261.321 315.338 261.112 315.081 260.903L313.532 259.63L311.967 258.327L310.386 256.994L308.791 255.631C295.973 244.603 281.822 230.662 268.108 213.672L268.126 214.44L268.134 215.215L268.132 216.241L268.123 217.057L268.105 217.976L268.076 218.992L268.035 220.103L267.979 221.305L267.907 222.594C266.893 239.231 261.611 275.399 235.563 298.547L175.878 313.208L164.105 302.405L164.257 302.219L164.774 301.565L165.432 300.705L166.094 299.814L166.66 299.034L167.279 298.16L167.719 297.527L168.179 296.855L168.656 296.144L169.403 295.009L169.918 294.207L170.445 293.37C170.534 293.228 170.623 293.084 170.713 292.939L171.255 292.052C171.346 291.901 171.437 291.749 171.529 291.595L172.082 290.659L172.641 289.692C172.734 289.528 172.828 289.363 172.922 289.196L173.486 288.184L174.051 287.142C179.23 277.463 184.35 264.249 183.612 250.708C183.257 244.193 182.264 240.696 180.971 238.211L180.74 237.782C180.584 237.503 180.424 237.236 180.261 236.978L180.014 236.598C179.972 236.535 179.931 236.473 179.889 236.412L179.635 236.048L179.246 235.514L178.717 234.815L177.906 233.752L177.495 233.197L177.221 232.812C177.175 232.746 177.129 232.681 177.083 232.614L176.809 232.206C176.763 232.137 176.717 232.067 176.671 231.996L176.397 231.56C174.983 229.253 173.61 226.069 172.533 220.488C171.55 215.39 171.784 209.467 172.624 203.595L172.306 203.924L171.604 204.637L171.107 205.133L170.181 206.041L169.446 206.75L168.617 207.538L167.697 208.401L166.686 209.335L165.586 210.338C151.275 223.272 116.254 251.198 70.828 261.506L68.9601 261.918C61.5701 263.664 53.7166 264.991 45.8933 265.959L44.2759 266.153L42.7089 266.332L41.9453 266.415L39.7384 266.642L38.3408 266.774L36.8617 266.903L35.5088 267.007L35.4413 267.012C33.6174 267.133 32.0404 265.754 31.9189 263.93C31.8957 263.582 31.9272 263.244 32.0058 262.923C31.1267 263.005 30.245 263.084 29.3617 263.16C27.5404 263.315 25.9377 261.965 25.7819 260.145C25.683 258.988 26.1921 257.919 27.0437 257.253C26.4912 257.306 25.9452 257.356 25.4043 257.403C23.5833 257.563 21.9775 256.217 21.8176 254.397C21.6577 252.576 23.0042 250.971 24.8251 250.811C30.8642 250.281 37.5744 249.447 44.3234 248.273C43.2245 247.332 42.3419 246.122 41.711 244.638C40.199 241.081 40.9614 237.644 43.0104 234.69C43.7475 233.628 44.4921 232.845 45.0621 232.358C46.3985 231.214 48.3837 231.322 49.5906 232.568C49.5314 230.955 50.6574 229.519 52.2576 229.205L52.5162 229.164L52.7124 229.142L52.9561 229.12C54.7776 228.976 56.8213 229.141 58.8546 229.883C61.8913 230.991 64.2101 233.213 65.2556 236.597C65.7564 238.218 65.8831 239.759 65.6964 241.2L66.7457 240.882C66.9235 240.827 67.1029 240.772 67.2837 240.716L68.386 240.368C68.5726 240.308 68.7606 240.247 68.9499 240.186L70.1028 239.807C70.2977 239.742 70.4939 239.676 70.6915 239.609L71.8925 239.197C72.0953 239.127 72.2993 239.055 72.5047 238.983L73.7515 238.538L75.0276 238.07L76.3317 237.579L77.663 237.064C95.5889 230.037 120.45 216.532 140.89 191.44L144.129 187.454L149.246 181.121L153.74 175.551L156.063 172.685L157.702 170.676L159.26 168.782L160.257 167.581L161.224 166.428L162.162 165.32C162.316 165.139 162.469 164.96 162.621 164.783L163.521 163.741L164.397 162.74C164.541 162.577 164.685 162.415 164.827 162.255L165.673 161.315C165.952 161.008 166.227 160.707 166.501 160.412L167.313 159.546L168.112 158.715C173.66 153.012 178.371 149.749 185.535 146.507L186.576 146.044C186.752 145.966 186.93 145.889 187.109 145.812L188.204 145.346L189.337 144.876L190.511 144.401C190.711 144.322 190.912 144.242 191.115 144.162C188.112 139.262 184.811 136.504 180.609 133.962L180.043 133.623L179.557 133.344L177.432 132.165L176.674 131.735L176.095 131.395L175.508 131.039L175.113 130.791L174.717 130.534L174.32 130.267L173.922 129.99L173.525 129.702C173.458 129.653 173.392 129.604 173.326 129.554L172.929 129.249C172.138 128.626 171.356 127.929 170.605 127.136L170.233 126.732C167.336 123.499 164.976 118.74 164.462 111.147C164.36 109.649 164.284 108.203 164.228 106.812L164.179 105.44C164.172 105.214 164.165 104.99 164.159 104.768L164.129 103.452C164.122 103.02 164.116 102.594 164.112 102.175L164.105 100.937L164.109 99.7392L164.122 98.5822C164.125 98.3928 164.128 98.2051 164.132 98.0192L164.157 96.9247L164.19 95.8728C164.197 95.7011 164.203 95.5312 164.21 95.3631L164.21 95.0399L164.225 94.6418L164.264 94.1033L164.318 93.5802L164.376 93.1385L164.424 92.822L164.48 92.4889L164.545 92.1401L164.619 91.7764L164.704 91.3986L164.799 91.0075L164.905 90.604L165.024 90.189C165.045 90.1189 165.066 90.0483 165.088 89.9774L165.226 89.5465L165.377 89.1062C165.615 88.439 165.901 87.7427 166.245 87.0299L166.482 86.5524L166.738 86.0708C168.282 83.2517 170.766 80.2693 174.761 77.8715L175.893 77.1976L176.953 76.5793L177.942 76.0134L178.864 75.4967L179.723 75.0261L180.521 74.5984L181.497 74.0894L182.167 73.7496L182.786 73.4423L183.89 72.9122L186.004 71.934L186.555 71.6676L186.761 71.5633L186.959 71.4591C187.803 71.0057 188.468 70.5245 189.304 69.6738ZM367.693 256.803C367.131 256.981 366.594 257.286 366.065 257.759C365.566 258.204 365.233 258.64 365.025 259.073C364.505 260.157 364.725 261.494 365.537 262.933C365.679 263.184 365.819 263.404 365.943 263.585L366.116 263.827L366.256 264.004L366.423 264.199L368.138 265.29C368.263 265.338 368.386 265.392 368.507 265.453C372.534 267.48 375.416 267.631 377.107 266.135C377.504 265.784 377.716 265.434 377.815 265.034C377.989 264.333 377.826 263.398 377.395 262.426C377.347 262.318 377.3 262.217 377.255 262.125L377.127 261.878L377.021 261.692L376.945 261.573C376.203 260.51 376.184 259.206 376.774 258.158C375.705 258.591 374.438 258.54 373.386 257.938L373.146 257.79L372.957 257.684L372.699 257.551C372.504 257.456 372.268 257.349 371.997 257.239C370.44 256.607 368.924 256.414 367.693 256.803ZM51.1065 234.224L51.1071 234.236C51.1363 235.249 50.7856 236.266 50.0745 237.013L49.9275 237.159C49.8398 237.241 49.702 237.39 49.5382 237.594L49.3307 237.865C49.2222 238.013 49.1079 238.178 48.9928 238.36C48.1003 239.767 47.8341 241.079 48.3331 242.363C49.0658 244.247 50.8671 245.076 54.3367 244.642L54.6567 244.599C54.7266 244.589 54.7962 244.582 54.8655 244.576L55.4311 244.464L55.9983 244.344L56.9379 244.134L57.4837 244.006L57.565 243.947L57.7288 243.838C57.921 243.718 58.3682 243.35 58.822 242.794C59.8238 241.566 60.187 240.233 59.6854 238.458C59.2791 237.02 58.5045 236.208 57.2925 235.724C56.3741 235.358 55.3316 235.238 54.4208 235.279L54.0026 235.31C52.8922 235.481 51.832 235.041 51.1065 234.224Z" fill="#FFC8E9"/>
<path fill-rule="evenodd" clip-rule="evenodd" d="M364.937 284.024L367.817 285.734L370.474 287.298L372.685 288.585L373.708 289.175L375.478 290.182L376.438 290.715C376.706 290.861 376.804 291.197 376.658 291.466C376.512 291.734 376.176 291.833 375.909 291.686L374.671 290.998L373.161 290.137L370.777 288.756L369.04 287.739L367.256 286.687L364.371 284.974C364.109 284.817 364.023 284.478 364.18 284.215C364.336 283.953 364.675 283.867 364.937 284.024ZM369.994 278.89L383.86 287.788L384.153 287.97C384.415 288.127 384.499 288.467 384.341 288.729C384.184 288.991 383.845 289.075 383.583 288.918L381.971 287.9L374.092 282.844L369.396 279.821C369.14 279.655 369.065 279.313 369.23 279.056C369.396 278.799 369.737 278.724 369.994 278.89ZM49.5323 259.571C49.595 259.854 49.417 260.134 49.1348 260.197L48.6845 260.291L47.9305 260.434L47.0075 260.595L45.6276 260.82L43.2986 261.179L40.988 261.519L38.8519 261.823L35.572 262.278L34.2352 262.459C33.9486 262.497 33.6854 262.295 33.6472 262.008C33.609 261.721 33.8104 261.458 34.0969 261.419L36.5266 261.089L38.7058 260.785L40.8383 260.481L43.1437 260.142L45.1495 259.834L46.8179 259.563L47.9304 259.368L48.6269 259.233L48.9078 259.173C49.19 259.11 49.4696 259.288 49.5323 259.571ZM44.4014 254.336C44.4641 254.618 44.2862 254.899 44.004 254.961L43.5536 255.056L43.0042 255.161L41.8767 255.359L40.7922 255.538L39.5534 255.733L37.327 256.069L34.7978 256.435L32.6327 256.741L29.1043 257.224C28.8178 257.262 28.5545 257.06 28.5164 256.773C28.4782 256.486 28.6795 256.222 28.966 256.184L31.3957 255.853L33.575 255.55L35.7074 255.245L38.3693 254.853L40.6136 254.504L42.1633 254.246L43.1699 254.063L43.777 253.938C44.0592 253.875 44.3387 254.053 44.4014 254.336ZM190.413 109.554C191.009 109.891 191.219 110.649 190.882 111.245C190.526 111.877 189.824 112.751 188.72 113.61C187.2 114.794 185.32 115.586 183.072 115.806C182.391 115.873 181.785 115.374 181.719 114.692C181.652 114.009 182.15 113.402 182.831 113.336C184.596 113.163 186.038 112.555 187.2 111.651C187.681 111.276 188.08 110.876 188.398 110.48L188.58 110.242L188.694 110.076L188.725 110.024C189.062 109.428 189.818 109.217 190.413 109.554ZM178.756 96.0519L178.868 96.0538C179.208 96.0903 179.454 96.396 179.418 96.7366L179.354 97.2253L179.327 97.4034C179.247 97.9234 179.142 98.5017 179.009 99.124C178.627 100.903 178.091 102.683 177.374 104.35C177.219 104.709 177.058 105.059 176.889 105.4L176.63 105.904C176.033 107.026 176.346 107.374 177.252 107.086C177.445 107.025 177.65 106.942 177.859 106.843C178.041 106.757 178.202 106.671 178.333 106.597L178.548 106.466C178.835 106.28 179.219 106.362 179.405 106.649C179.591 106.936 179.509 107.32 179.222 107.507C179.04 107.625 178.747 107.795 178.387 107.965C178.131 108.086 177.876 108.189 177.626 108.268C175.691 108.884 174.404 107.452 175.537 105.32C175.785 104.854 176.018 104.366 176.237 103.859C176.919 102.273 177.432 100.569 177.798 98.8631C177.894 98.4151 177.975 97.9914 178.041 97.5981L178.149 96.9035L178.187 96.6044C178.219 96.3016 178.464 96.0732 178.756 96.0519ZM174.579 99.1147C174.83 99.3471 174.846 99.7394 174.614 99.9911C174.428 100.193 174.101 100.471 173.64 100.745C172.499 101.424 171.165 101.684 169.698 101.304L169.392 101.214L169.069 101.434L168.867 101.558C168.551 101.746 168.236 101.898 167.927 102.001C167.602 102.11 167.252 101.934 167.143 101.609C167.035 101.284 167.21 100.933 167.535 100.825C167.751 100.752 167.99 100.637 168.236 100.491C168.408 100.389 168.561 100.286 168.684 100.197L168.886 100.042C169.057 99.9007 169.291 99.8618 169.499 99.9402C170.837 100.446 172.008 100.273 173.008 99.6786C173.357 99.4715 173.595 99.2689 173.704 99.1497C173.936 98.898 174.328 98.8824 174.579 99.1147ZM194.164 97.5738L194.464 97.7466L194.812 97.941L195.35 98.2293L195.659 98.3844L195.92 98.506L196.119 98.5887C196.146 98.5989 196.171 98.6074 196.191 98.6138L196.243 98.6274C196.58 98.6884 196.803 99.0111 196.742 99.3482C196.682 99.6852 196.359 99.909 196.023 99.848C195.784 99.8046 195.454 99.6686 195.012 99.4486L194.578 99.2246L194.215 99.0283L193.846 98.8214L193.812 98.8417C192.291 99.6606 190.834 99.9526 189.501 99.8288L189.195 99.7929C188.652 99.7155 188.167 99.5712 187.768 99.3898C187.611 99.3186 187.474 99.2441 187.371 99.1748L187.284 99.1116L187.185 99.0226L187.149 98.9796L187.108 98.9007L187.037 98.7438L187.098 98.4711C187.197 98.0507 187.257 98.0397 187.643 97.9686C187.795 97.9686 187.934 98.0234 188.042 98.1144L188.091 98.1632L188.188 98.2166L188.279 98.2603C188.573 98.3936 188.945 98.5043 189.37 98.5648C190.61 98.7415 192.015 98.4699 193.537 97.5737C193.731 97.4598 193.971 97.4598 194.164 97.5738ZM175.485 89.7798C175.541 90.6543 174.925 91.4167 174.08 91.5587L173.842 91.5846L173.651 91.6115C173.613 91.6178 173.572 91.625 173.529 91.6333L173.235 91.696C173.182 91.7087 173.125 91.7226 173.067 91.7377C172.366 91.919 171.665 92.2088 171.02 92.6252C170.25 93.1223 169.608 93.7696 169.121 94.596C168.648 95.4013 167.612 95.6694 166.808 95.1948C166.005 94.7203 165.737 93.6827 166.211 92.8775C166.975 91.5782 167.992 90.5532 169.19 89.7799C170.855 88.7046 172.504 88.2782 173.689 88.2009C174.62 88.1402 175.424 88.8471 175.485 89.7798ZM196.051 87.9119C197.213 88.4116 198.293 89.0919 199.269 89.9665C199.965 90.5897 200.024 91.6596 199.402 92.3563C198.78 93.0529 197.712 93.1125 197.017 92.4893C196.319 91.8643 195.551 91.3803 194.719 91.0226C192.964 90.2686 191.068 90.1121 189.318 90.3289L188.768 90.4102L188.352 90.493L188.297 90.5071C187.396 90.7522 186.468 90.2196 186.224 89.3176C185.979 88.4156 186.51 87.4857 187.411 87.2406L187.523 87.2115L187.811 87.1468L188.178 87.0773C188.246 87.0655 188.316 87.0538 188.39 87.0421C190.823 86.6571 193.491 86.8117 196.051 87.9119Z" fill="#002199"/>
<path fill-rule="evenodd" clip-rule="evenodd" d="M172.038 204.099V204.099V204.099L171.761 190.713C171.761 190.713 159.588 218.992 99.793 252.479C143.483 234.396 172.038 204.099 172.038 204.099" fill="#FF9FD1"/>
<path fill-rule="evenodd" clip-rule="evenodd" d="M289.45 183.935C273.456 164.587 266.284 158.453 249.777 149.483C243.527 157.981 226.832 179.944 204.084 179.185C175.348 178.225 175.76 151.997 175.76 151.975C168.202 157.237 162.141 165.17 149.234 181.213C166.743 194.044 168.017 207.799 168.017 207.799V207.898C170.652 205.518 172.04 204.1 172.04 204.1C171.205 209.944 170.973 215.84 171.95 220.915C175.399 238.836 181.916 231.924 182.954 250.998C184.388 277.349 163.578 302.457 163.578 302.457L175.272 313.211L234.557 298.617C270.608 268.934 268.106 213.673 268.106 213.673L262.666 209.267C266.691 190.834 285.427 185.21 285.427 185.21L289.45 183.935Z" fill="#F4F9FF"/>
<path fill-rule="evenodd" clip-rule="evenodd" d="M267.086 212.893L262.667 209.265C258.672 205.343 251.011 197.017 251.011 197.017C251.011 197.017 251.972 201.541 252.679 208.803C252.679 208.811 252.405 223.256 243.745 233.248C238.052 239.816 239.437 240.614 242.769 243.882C247.013 248.045 250.456 252.345 247.135 263.613C243.966 272.46 239.328 281.04 232.645 288.514L244.834 288.933C269.996 257.552 268.106 213.672 268.106 213.672L267.086 212.893Z" fill="#9CC5FF"/>
<path fill-rule="evenodd" clip-rule="evenodd" d="M318.544 395.116C333.325 396.914 349.457 401.718 348.963 406.654C348.28 413.473 334.428 414.521 317.202 413.185C285.343 410.714 291.525 395.823 249.351 401.176C228.23 403.856 230.931 416.968 194.305 427.348C177.12 432.217 157.748 435.11 134.042 431.13C108.53 426.847 119.685 408.791 91.2224 408.286C64.971 407.819 53.7631 411.982 40.3165 413.559C17.3166 415.956 7.02164 412.209 27.7268 405.463C75.8817 389.771 102.606 395.699 120.606 395.297C154.877 394.533 144.771 387.889 183.794 387.137C249.343 385.871 291.13 390.545 318.544 395.116" fill="#D0E8FF"/>
<path fill-rule="evenodd" clip-rule="evenodd" d="M105.109 297.271C106.068 297.08 122.742 292.087 122.742 292.087L164.331 303.416L195.38 303.8L228.919 296.503V323.962L140.758 347.195" fill="#27B7FF"/>
<path fill-rule="evenodd" clip-rule="evenodd" d="M163.9 304.505L160.451 299.64C160.451 299.64 149.558 294.68 132.501 284.984C115.444 275.286 89.0905 257.142 69.638 269.046C50.1846 280.952 67.434 313.017 78.9336 324.538C90.4322 336.059 103.274 353.916 173.611 379.262C173.611 379.262 182.352 380.495 182.225 385.488C182.097 390.48 178.594 402.816 169.267 420.609C169.267 420.609 168.245 422.209 169.586 422.977C170.927 423.745 173.403 423.866 178.114 421.505C185.206 417.953 206.767 400.768 217.021 381.758C217.021 381.758 222.483 372.446 214.146 367.262C205.809 362.077 163.837 351.516 163.837 351.516L148.698 335.106C148.698 335.106 97.2363 299.768 121.001 303.513" fill="#27B7FF"/>
<path fill-rule="evenodd" clip-rule="evenodd" d="M148.696 335.105C130.89 327.763 113.565 302.705 127.839 308.02C127.839 308.02 132.11 309.89 134.61 311.461C138.78 314.081 148.806 322.598 172.387 319.642C195.968 316.685 219.648 301.238 226.419 302.522C233.19 303.805 222.759 324.706 221.477 324.891C220.196 325.073 155.23 338.091 155.23 338.091" fill="#0B7EFF"/>
<path fill-rule="evenodd" clip-rule="evenodd" d="M217.65 370.782C216.934 369.514 215.822 368.304 214.144 367.261C205.808 362.077 163.835 351.516 163.835 351.516L148.761 335.175C105.108 344.301 66.9578 307.333 66.8926 307.288C70.461 314.345 75.027 320.626 78.9321 324.538C90.4317 336.059 103.272 353.915 173.609 379.261C173.609 379.261 179.021 380.948 178.848 386.686C178.773 389.181 178.721 393.214 177.507 398.846C187.644 391.772 204.726 379.825 217.65 370.782" fill="#0B7EFF"/>
<path fill-rule="evenodd" clip-rule="evenodd" d="M160.448 299.64C160.448 299.64 173.481 307.96 193.541 299C213.601 290.039 252.754 275.321 270.299 286.423C286.686 296.792 283.01 316.282 271.353 327.034C261.004 336.58 211.364 376.19 69.4766 374.654C69.4766 374.654 61.4906 374.461 56.8906 375.549C52.2905 376.638 33.4612 381.086 17.7454 388.959C17.7454 388.959 13.1454 390.879 11.5995 390.108C9.20538 388.912 10.1273 386.687 13.0017 383.742C15.8761 380.798 34.7547 362.461 53.5368 353.628C53.5368 353.628 57.0343 351.132 63.5027 351.227C69.9711 351.324 115.611 348.713 171.693 327.034C231.297 303.993 199.482 305.337 199.482 305.337L163.834 306.488L160.448 299.64Z" fill="#27B7FF"/>
<path fill-rule="evenodd" clip-rule="evenodd" d="M43.6966 193.096C46.8197 160.611 108.169 139.561 185.651 143.253C186.303 143.284 186.807 143.839 186.776 144.493C186.745 145.146 186.191 145.651 185.539 145.62C109.21 141.983 49.0005 162.642 46.0508 193.323C42.8368 226.746 108.179 260.93 192.183 269.036C276.188 277.142 346.84 256.082 350.054 222.66C352.427 197.966 316.955 171.99 261.275 157.122C260.644 156.954 260.269 156.305 260.437 155.672C260.605 155.04 261.253 154.664 261.884 154.833C318.579 169.972 354.935 196.595 352.408 222.887C349.013 258.194 277.149 279.615 191.956 271.395C106.765 263.174 40.3013 228.403 43.6966 193.096Z" fill="#FFA900"/>
<path fill-rule="evenodd" clip-rule="evenodd" d="M89.4457 90.0838C99.9884 78.6632 121.233 78.8044 148.688 89.5728C149.296 89.8114 149.596 90.4987 149.358 91.1079C149.12 91.7172 148.434 92.0178 147.826 91.7793L146.235 91.1646C120.373 81.3274 100.68 81.4035 91.182 91.6927C70.3198 114.291 103.362 179.689 165.528 237.293C227.693 294.898 295.344 322.807 316.207 300.209C322.035 293.895 323.779 284.052 321.414 271.376C321.294 270.732 321.718 270.114 322.36 269.993C323.002 269.873 323.619 270.297 323.739 270.94C326.229 284.287 324.353 294.874 317.943 301.818C295.759 325.846 226.992 297.477 163.922 239.032C100.85 180.589 67.2631 114.112 89.4457 90.0838Z" fill="#FFA900"/>
<path fill-rule="evenodd" clip-rule="evenodd" d="M180.693 136.98C181.27 136.674 181.985 136.894 182.291 137.472C182.597 138.051 182.377 138.768 181.799 139.074C159.369 150.974 114.252 196.792 95.0187 227.538C94.6719 228.092 93.9421 228.26 93.3887 227.912C92.8353 227.565 92.6678 226.834 93.0147 226.279C112.453 195.206 157.859 149.093 180.693 136.98Z" fill="#FFA900"/>
<path fill-rule="evenodd" clip-rule="evenodd" d="M232.582 105.227C285.362 71.3278 327.947 58.2205 340.499 73.5229C357.529 94.2832 312.095 158.937 239.461 218.741C166.827 278.544 94.7149 310.672 77.6858 289.912C72.6173 283.734 72.9457 273.725 78.2091 260.736C78.4547 260.13 79.1445 259.838 79.7496 260.084C80.3547 260.33 80.6461 261.021 80.4004 261.627C75.4288 273.896 75.1281 283.063 79.513 288.408C95.199 307.531 166.454 275.784 237.96 216.91C309.465 158.036 354.358 94.1503 338.672 75.0273C327.304 61.1685 285.555 74.0185 233.858 107.222C233.308 107.575 232.577 107.415 232.224 106.864C231.872 106.313 232.032 105.581 232.582 105.227Z" fill="#FFA900"/>
<path fill-rule="evenodd" clip-rule="evenodd" d="M67.5301 200.096C65.6901 200.096 63.9711 199.276 62.8138 197.845L29.287 156.422C28.2659 155.161 27.7969 153.577 27.9652 151.962C28.1335 150.347 28.9202 148.894 30.1787 147.871L46.6291 134.508C47.706 133.632 49.0619 133.15 50.4471 133.15C52.2872 133.15 54.0061 133.97 55.1635 135.401L88.6893 176.824C90.7969 179.428 90.3979 183.264 87.7986 185.375L71.3491 198.739C70.2712 199.614 68.9153 200.096 67.5301 200.096" fill="#005CFF"/>
<path fill-rule="evenodd" clip-rule="evenodd" d="M50.4474 132.061V132.061C48.8126 132.061 47.2137 132.629 45.9429 133.661L29.4935 147.025C26.429 149.515 25.9572 154.038 28.442 157.108L61.9688 198.532C63.3332 200.219 65.3604 201.186 67.5295 201.186C69.1634 201.186 70.7623 200.618 72.034 199.585L88.4835 186.222C91.5479 183.732 92.0198 179.209 89.5339 176.138L56.0081 134.715C54.6428 133.028 52.6156 132.061 50.4474 132.061" fill="#005CFF"/>
<path fill-rule="evenodd" clip-rule="evenodd" d="M50.4478 134.238C51.8973 134.238 53.3345 134.869 54.3188 136.086L87.8455 177.509C89.5778 179.65 89.2506 182.792 87.1137 184.529L70.6642 197.892C69.7414 198.642 68.6313 199.006 67.5298 199.006C66.0803 199.006 64.6421 198.375 63.6578 197.159L30.132 155.735C28.3989 153.595 28.727 150.452 30.8639 148.716L47.3133 135.353C48.2362 134.603 49.3453 134.238 50.4478 134.238" fill="#005CFF"/>
<path fill-rule="evenodd" clip-rule="evenodd" d="M27.5821 149.415L29.771 145.332L58.9871 144.078L92.1073 179.405L90.602 183.349L54.3927 181.481L27.5821 149.415Z" fill="#005CFF"/>
<path fill-rule="evenodd" clip-rule="evenodd" d="M69.4575 195.743C67.661 195.743 65.9817 194.941 64.8508 193.545L31.3241 152.121C29.2666 149.579 29.6571 145.832 32.1949 143.77L48.6444 130.406C49.6968 129.551 51.0215 129.08 52.3745 129.08C54.171 129.08 55.8503 129.881 56.9812 131.279L90.507 172.701C92.5654 175.245 92.1749 178.991 89.6361 181.054L73.1867 194.417C72.1352 195.272 70.8106 195.743 69.4575 195.743" fill="#002199"/>
<path fill-rule="evenodd" clip-rule="evenodd" d="M52.3781 128.133V128.133C50.8095 128.133 49.273 128.679 48.0533 129.67L31.6029 143.034C28.6604 145.425 28.2074 149.769 30.593 152.718L64.1198 194.141C65.4312 195.761 67.3772 196.69 69.4602 196.69C71.0298 196.69 72.5653 196.144 73.786 195.153L90.2355 181.789C93.1789 179.398 93.6318 175.054 91.2453 172.105L57.7185 130.681C56.408 129.061 54.4612 128.133 52.3781 128.133" fill="#005CFF"/>
<path fill-rule="evenodd" clip-rule="evenodd" d="M52.3751 130.028C53.8246 130.028 55.2628 130.658 56.2471 131.875L89.7729 173.298C91.506 175.439 91.1779 178.582 89.041 180.317L72.5916 193.681C71.6687 194.431 70.5596 194.796 69.4571 194.796C68.0076 194.796 66.5704 194.165 65.5861 192.947L32.0594 151.525C30.3271 149.384 30.6543 146.242 32.7912 144.505L49.2407 131.142C50.1635 130.392 51.2726 130.028 52.3751 130.028" fill="#002FC4"/>
<path fill-rule="evenodd" clip-rule="evenodd" d="M69.4411 154.367C73.6354 159.279 73.0596 166.666 68.157 170.867C63.2554 175.07 55.8821 174.494 51.6886 169.583C47.4942 164.671 48.0682 157.283 52.9698 153.082C57.8724 148.88 65.2467 149.455 69.4411 154.367" fill="#FD5C00"/>
<path fill-rule="evenodd" clip-rule="evenodd" d="M62.6796 155.955C63.0677 154.993 64.1609 154.528 65.1213 154.917C66.0251 155.283 66.4892 156.274 66.2171 157.192L66.1574 157.363L62.4121 166.647C62.0565 167.529 61.1061 167.996 60.2057 167.763L60.0264 167.707L56.3464 166.352C55.3741 165.995 54.8755 164.915 55.2328 163.941C55.569 163.024 56.5435 162.527 57.4675 162.771L57.64 162.825L59.6143 163.551L62.6796 155.955Z" fill="white"/>
<path fill-rule="evenodd" clip-rule="evenodd" d="M168.016 207.797V207.897C170.651 205.516 172.039 204.098 172.039 204.098L174.951 188.496C174.951 188.496 171.788 192 165.598 200.338C167.09 204.001 168.016 207.797 168.016 207.797" fill="#9CC5FF"/>
<path fill-rule="evenodd" clip-rule="evenodd" d="M175.134 187.584C175.638 187.685 175.964 188.175 175.864 188.679L175.397 191.081C175.164 192.3 174.93 193.54 174.703 194.771L174.236 197.349L173.875 199.423C173.653 200.73 173.462 201.91 173.309 202.94C173.233 203.448 172.76 203.799 172.253 203.723C171.745 203.647 171.396 203.173 171.471 202.665L171.639 201.573C171.818 200.433 172.033 199.152 172.279 197.754L172.541 196.277C172.76 195.058 172.989 193.814 173.222 192.577L173.751 189.808L174.042 188.316C174.134 187.854 174.553 187.54 175.009 187.568L175.134 187.584Z" fill="#06A0FF"/>
<path fill-rule="evenodd" clip-rule="evenodd" d="M249.25 193.645C249.671 193.353 250.25 193.458 250.542 193.88C251.365 195.071 252.422 196.437 253.672 197.943C254.201 198.579 254.76 199.235 255.347 199.909C256.553 201.293 257.829 202.7 259.119 204.079L260.422 205.46L262.24 207.335C262.602 207.699 262.601 208.289 262.237 208.651C261.873 209.014 261.285 209.012 260.923 208.648L260.321 208.034C259.939 207.642 259.523 207.211 259.079 206.746L258.741 206.39C257.108 204.669 255.474 202.885 253.947 201.132C253.351 200.448 252.783 199.781 252.245 199.133C250.961 197.589 249.873 196.182 249.015 194.94C248.723 194.518 248.828 193.938 249.25 193.645Z" fill="#06A0FF"/>
<path fill-rule="evenodd" clip-rule="evenodd" d="M78.6873 350.19C70.7174 351.05 65.4101 351.274 63.5048 351.229C58.0255 351.101 53.0425 353.406 53.0425 353.406C34.2604 362.237 15.8783 380.8 13.0039 383.743C10.1285 386.687 9.20754 388.913 11.6016 390.109C13.1476 390.879 17.7467 388.96 17.7467 388.96C33.4624 381.087 52.2927 376.639 56.8927 375.551C57.408 375.428 57.9706 375.324 58.5559 375.233L58.5531 375.232C58.5531 375.232 54.0174 372.638 58.0425 366.493C61.5315 361.167 68.9161 354.399 78.6873 350.19" fill="#FD5C00"/>
<path fill-rule="evenodd" clip-rule="evenodd" d="M40.9258 373.189C41.7176 369.708 43.303 367.709 45.9346 368.343C47.1614 368.639 47.6581 369.58 47.448 370.84C47.2955 371.754 46.785 372.859 45.9914 374.127C44.9677 375.764 43.0969 378.105 42.6515 378.489L42.6017 378.528L41.9205 377.492C42.0591 377.401 43.9637 375.033 44.9423 373.469C45.6564 372.327 46.1074 371.351 46.2268 370.635C46.3375 369.972 46.1828 369.679 45.6452 369.549C43.9308 369.136 42.7905 370.574 42.133 373.464C41.9179 374.409 41.7778 375.428 41.6986 376.448C41.6801 376.687 41.6659 376.914 41.6555 377.127L41.6314 377.854L40.3958 377.796L40.3975 377.633L40.3894 377.527C40.3164 376.902 39.8906 375.453 39.3742 374.386L39.2622 374.163C38.4396 372.596 37.6665 372.16 36.7963 372.893C36.3026 373.309 36.2656 373.788 36.644 374.486C36.9732 375.094 37.5911 375.776 38.4108 376.479C38.8827 376.884 39.3907 377.27 39.8988 377.623L40.3639 377.937L40.5682 378.066L39.9223 379.124L39.7392 379.009C39.5955 378.916 39.4102 378.793 39.1935 378.643C38.653 378.267 38.1123 377.856 37.6055 377.422C36.6811 376.628 35.9713 375.845 35.5558 375.078C34.9196 373.904 35.0064 372.78 35.9997 371.943C37.6627 370.544 39.2225 371.422 40.3581 373.586C40.4455 373.753 40.5308 373.929 40.6132 374.112L40.7063 374.325L40.7975 373.802L40.9258 373.189Z" fill="#FF9700"/>
<path fill-rule="evenodd" clip-rule="evenodd" d="M214.147 367.261C212.23 366.068 208.529 364.591 203.971 363.023C182.667 369.033 178.85 386.686 178.85 386.686C178.723 391.678 178.595 402.815 169.267 420.609C169.267 420.609 168.245 422.208 169.587 422.977C170.929 423.744 173.404 423.865 178.116 421.504C185.207 417.952 206.768 400.767 217.021 381.757C217.021 381.757 222.484 372.445 214.147 367.261Z" fill="#FD5C00"/>
<path fill-rule="evenodd" clip-rule="evenodd" d="M217.021 381.757C217.021 381.757 218.125 379.87 218.581 377.324C218.593 377.266 219.4 372.673 216.681 370.928C213.619 368.963 208.141 370.943 204.053 375.549C199.964 380.155 189.713 395.471 180.176 407.583C173.372 416.224 170.632 418.529 169.438 420.281L169.418 420.309C169.365 420.411 169.321 420.506 169.267 420.609C169.267 420.609 168.245 422.208 169.587 422.977C170.928 423.744 173.404 423.865 178.115 421.504C185.207 417.952 206.768 400.767 217.021 381.757" fill="#AF0800"/>
<path fill-rule="evenodd" clip-rule="evenodd" d="M183.029 383.456C183.843 381.765 184.925 380.889 186.276 381.346C187.889 381.893 187.871 383.633 186.772 385.652C186.587 385.991 186.376 386.331 186.144 386.664L186.102 386.719L186.203 386.706C187.308 386.569 188.212 386.972 188.729 388.035L188.822 388.242C190.129 391.44 185.414 393.868 182.005 391.571L181.813 391.436L182.548 390.437C185.084 392.308 188.457 390.623 187.676 388.712C187.348 387.909 186.746 387.745 185.732 388.085C185.355 388.211 184.95 388.404 184.53 388.649L184.235 388.827L183.982 389.048C183.687 389.294 183.39 389.514 183.095 389.701L182.801 389.876L180.045 391.436L180.045 390.1L182.51 388.527C182.725 388.36 182.952 388.194 183.188 388.032L183.482 387.838L183.727 387.61C184.4 386.955 185.036 386.16 185.514 385.358L185.685 385.058C186.467 383.622 186.476 382.723 185.879 382.521C185.304 382.326 184.72 382.799 184.144 383.995C183.702 384.912 183.337 386.144 183.097 387.36L183.014 387.815L181.793 387.605C182.044 386.142 182.474 384.609 183.029 383.456Z" fill="#FF9700"/>
<path fill-rule="evenodd" clip-rule="evenodd" d="M39.4369 143.129C38.203 143.129 36.9813 142.593 36.1464 141.558L47.2243 132.562C48.6974 134.381 48.4195 137.052 46.6021 138.527L42.0995 142.182C41.3157 142.819 40.373 143.129 39.4369 143.129" fill="#005CFF"/>
<path fill-rule="evenodd" clip-rule="evenodd" d="M44.167 138.286C44.167 138.846 43.7141 139.299 43.1563 139.299C42.5974 139.299 42.1445 138.846 42.1445 138.286C42.1445 137.727 42.5974 137.273 43.1563 137.273C43.7141 137.273 44.167 137.727 44.167 138.286" fill="#0A1B64"/>
<path fill-rule="evenodd" clip-rule="evenodd" d="M173.347 129.746C176.353 132.631 178.439 133.089 180.878 134.54C183.769 136.261 185.723 137.776 187.704 139.722C188.131 140.141 190.619 141.789 193.695 141.789C200.892 141.789 208.7 130.941 206.139 127.579C203.436 124.033 199.05 130.046 187.692 132.163C177.2 134.119 171.668 128.168 171.668 128.168L173.347 129.746Z" fill="#FF9FD1"/>
<path fill-rule="evenodd" clip-rule="evenodd" d="M191.112 144.163C186.915 145.827 181.316 148.253 178.047 150.564C187.883 149.846 195.788 156.545 195.309 155.45C193.027 150.241 191.112 144.163 191.112 144.163Z" fill="#FF9FD1"/>
<path fill-rule="evenodd" clip-rule="evenodd" d="M237.687 146.573C238.053 146.014 238.805 145.856 239.366 146.221C239.927 146.585 240.086 147.333 239.72 147.892L239.489 148.231C239.422 148.326 239.345 148.435 239.257 148.556L239.118 148.747C238.635 149.405 238.062 150.136 237.401 150.922C235.519 153.16 233.306 155.397 230.771 157.486C223.501 163.479 215.094 167.087 205.668 167.087C197.78 167.087 191.653 163.875 187.132 158.551C185.558 156.697 184.294 154.715 183.309 152.732L183.006 152.105C182.585 151.204 182.308 150.489 182.161 150.03C181.958 149.394 182.31 148.715 182.948 148.512C183.587 148.309 184.269 148.66 184.473 149.296L184.579 149.595C184.613 149.686 184.654 149.794 184.702 149.917C184.91 150.44 185.169 151.027 185.484 151.661C186.386 153.478 187.546 155.297 188.984 156.991C193.07 161.802 198.543 164.671 205.668 164.671C214.469 164.671 222.357 161.286 229.224 155.625C231.638 153.635 233.749 151.502 235.541 149.371C236.041 148.775 236.487 148.215 236.877 147.699L237.159 147.321C237.427 146.956 237.603 146.701 237.687 146.573Z" fill="#0A1B64"/>
<path fill-rule="evenodd" clip-rule="evenodd" d="M208.418 170.395C208.418 172.751 207.163 174.662 205.616 174.662C204.068 174.662 202.814 172.751 202.814 170.395C202.814 168.038 204.068 166.127 205.616 166.127C207.163 166.127 208.418 168.038 208.418 170.395" fill="#FD5C00"/>
<path fill-rule="evenodd" clip-rule="evenodd" d="M379.217 86.9355C379.217 86.9355 379.217 92.7681 373.395 92.7681C379.217 92.7681 379.217 98.6016 379.217 98.6016C379.217 98.6016 379.217 92.7681 385.039 92.7681C379.217 92.7681 379.217 86.9355 379.217 86.9355" fill="#A6A6FF"/>
<path fill-rule="evenodd" clip-rule="evenodd" d="M377.783 92.7687C378.368 93.2073 378.841 93.7264 379.219 94.2834C379.596 93.7264 380.07 93.2073 380.654 92.7687C380.07 92.331 379.596 91.8109 379.219 91.2549C378.841 91.8109 378.368 92.331 377.783 92.7687ZM379.22 99.9251C378.49 99.9251 377.899 99.333 377.899 98.6017C377.894 98.1461 377.727 94.0916 373.397 94.0916C372.667 94.0916 372.076 93.4995 372.076 92.7682C372.076 92.0379 372.667 91.4458 373.397 91.4458C377.723 91.4458 377.893 87.3989 377.899 86.93C377.901 86.2015 378.491 85.6123 379.22 85.6123C379.94 85.6123 380.527 86.1921 380.54 86.912V86.9139V86.9158V86.9167V86.9177V86.9186V86.9205V86.9224V86.9243V86.9272V86.93C380.544 87.3989 380.716 91.4458 385.041 91.4458C385.77 91.4458 386.362 92.0379 386.362 92.7682C386.362 93.4995 385.77 94.0916 385.041 94.0916C380.666 94.0916 380.54 98.1404 380.54 98.6017C380.54 99.333 379.949 99.9251 379.22 99.9251Z" fill="#A6A6FF"/>
<path fill-rule="evenodd" clip-rule="evenodd" d="M397.613 187.163C397.613 187.163 397.613 189.639 395.143 189.639C397.613 189.639 397.613 192.116 397.613 192.116C397.613 192.116 397.613 189.639 400.085 189.639C397.613 189.639 397.613 187.163 397.613 187.163" fill="#A6A6FF"/>
<path fill-rule="evenodd" clip-rule="evenodd" d="M397.006 189.638C397.254 189.824 397.454 190.045 397.615 190.281C397.775 190.045 397.976 189.824 398.224 189.638C397.976 189.452 397.775 189.232 397.615 188.995C397.454 189.232 397.254 189.452 397.006 189.638ZM397.615 192.676C397.306 192.676 397.055 192.425 397.055 192.115C397.053 191.921 396.982 190.2 395.144 190.2C394.835 190.2 394.584 189.948 394.584 189.639C394.584 189.328 394.835 189.077 395.144 189.077C396.98 189.077 397.053 187.359 397.055 187.16C397.056 186.851 397.306 186.601 397.615 186.601C397.922 186.601 398.17 186.847 398.176 187.153V187.154V187.155V187.156V187.157V187.158V187.159V187.159V187.16C398.178 187.359 398.251 189.077 400.087 189.077C400.396 189.077 400.647 189.328 400.647 189.639C400.647 189.948 400.396 190.2 400.087 190.2C398.23 190.2 398.176 191.919 398.176 192.115C398.176 192.425 397.925 192.676 397.615 192.676Z" fill="#A6A6FF"/>
<path fill-rule="evenodd" clip-rule="evenodd" d="M21.7074 60.2412C21.7074 60.2412 21.7074 66.0747 15.8848 66.0747C21.7074 66.0747 21.7074 71.9072 21.7074 71.9072C21.7074 71.9072 21.7074 66.0747 27.529 66.0747C21.7074 66.0747 21.7074 60.2412 21.7074 60.2412" fill="#A6A6FF"/>
<path fill-rule="evenodd" clip-rule="evenodd" d="M20.2714 66.0743C20.8567 66.512 21.3295 67.0311 21.7077 67.5881C22.084 67.0311 22.5577 66.512 23.1421 66.0743C22.5577 65.6357 22.084 65.1156 21.7077 64.5596C21.3295 65.1156 20.8567 65.6357 20.2714 66.0743ZM21.7079 73.2318C20.978 73.2318 20.387 72.6397 20.387 71.9084C20.3813 71.4527 20.2149 67.3983 15.8853 67.3983C15.1554 67.3983 14.5644 66.8062 14.5644 66.0758C14.5644 65.3445 15.1554 64.7525 15.8853 64.7525C20.2111 64.7525 20.3813 60.7056 20.387 60.2367C20.3889 59.5082 20.9789 58.9199 21.7079 58.9199C22.4284 58.9199 23.0156 59.4987 23.0279 60.2187V60.2196V60.2206V60.2225V60.2234V60.2253V60.2272V60.2291V60.2319V60.2338V60.2348V60.2367C23.0326 60.7056 23.2037 64.7525 27.5296 64.7525C28.2586 64.7525 28.8505 65.3445 28.8505 66.0758C28.8505 66.8062 28.2586 67.3983 27.5296 67.3983C23.1546 67.3983 23.0279 71.447 23.0279 71.9084C23.0279 72.6397 22.4369 73.2318 21.7079 73.2318Z" fill="#A6A6FF"/>
<path fill-rule="evenodd" clip-rule="evenodd" d="M122.643 13.8555C122.643 13.8555 122.643 17.3652 119.139 17.3652C122.643 17.3652 122.643 20.8759 122.643 20.8759C122.643 20.8759 122.643 17.3652 126.147 17.3652C122.643 17.3652 122.643 13.8555 122.643 13.8555" fill="#A6A6FF"/>
<path fill-rule="evenodd" clip-rule="evenodd" d="M121.777 17.3659C122.129 17.6292 122.414 17.9419 122.642 18.2772C122.868 17.9419 123.153 17.6292 123.505 17.3659C123.153 17.1025 122.868 16.7899 122.642 16.4546C122.414 16.7899 122.129 17.1025 121.777 17.3659ZM122.642 21.672C122.203 21.672 121.847 21.3158 121.847 20.8762C121.844 20.6024 121.744 18.1622 119.138 18.1622C118.699 18.1622 118.344 17.8051 118.344 17.3655C118.344 16.926 118.699 16.5698 119.138 16.5698C121.742 16.5698 121.844 14.1343 121.847 13.8529C121.849 13.4143 122.203 13.0591 122.642 13.0591C123.076 13.0591 123.429 13.4077 123.436 13.8416V13.8425V13.8434V13.8444V13.8453V13.8463V13.8482V13.8491V13.8501V13.851V13.8529C123.439 14.1343 123.542 16.5698 126.145 16.5698C126.584 16.5698 126.941 16.926 126.941 17.3655C126.941 17.8051 126.584 18.1622 126.145 18.1622C123.513 18.1622 123.436 20.5987 123.436 20.8762C123.436 21.3158 123.081 21.672 122.642 21.672Z" fill="#A6A6FF"/>
<path fill-rule="evenodd" clip-rule="evenodd" d="M9.49873 212.331C9.49873 212.331 9.49873 215.202 6.63281 215.202C9.49873 215.202 9.49873 218.074 9.49873 218.074C9.49873 218.074 9.49873 215.202 12.3637 215.202C9.49873 215.202 9.49873 212.331 9.49873 212.331" fill="#A6A6FF"/>
<path fill-rule="evenodd" clip-rule="evenodd" d="M8.79473 215.203C9.08218 215.418 9.31572 215.673 9.50199 215.947C9.68732 215.673 9.91992 215.418 10.2074 215.203C9.91992 214.987 9.68732 214.731 9.50199 214.457C9.31572 214.731 9.08218 214.987 8.79473 215.203ZM9.50082 218.725C9.14151 218.725 8.85029 218.433 8.85029 218.074C8.84745 217.849 8.76614 215.854 6.6349 215.854C6.2756 215.854 5.98438 215.562 5.98438 215.203C5.98438 214.843 6.2756 214.551 6.6349 214.551C8.76425 214.551 8.84745 212.56 8.85029 212.329C8.85123 211.971 9.14246 211.681 9.50082 211.681C9.85539 211.681 10.1438 211.966 10.1504 212.32V212.321V212.322V212.323V212.324V212.325V212.326V212.328V212.329C10.1523 212.56 10.2364 214.551 12.3658 214.551C12.7251 214.551 13.0154 214.843 13.0154 215.203C13.0154 215.562 12.7251 215.854 12.3658 215.854C10.2119 215.854 10.1504 217.847 10.1504 218.074C10.1504 218.433 9.85917 218.725 9.50082 218.725Z" fill="#A6A6FF"/>
<path fill-rule="evenodd" clip-rule="evenodd" d="M356.712 0.650879C356.712 0.650879 356.712 3.52215 353.846 3.52215C356.712 3.52215 356.712 6.39342 356.712 6.39342C356.712 6.39342 356.712 3.52215 359.577 3.52215C356.712 3.52215 356.712 0.650879 356.712 0.650879" fill="#A6A6FF"/>
<path fill-rule="evenodd" clip-rule="evenodd" d="M356.002 3.52189C356.29 3.73693 356.523 3.9927 356.709 4.26742C356.894 3.9927 357.128 3.73693 357.415 3.52189C357.128 3.30591 356.894 3.05014 356.709 2.77637C356.523 3.05014 356.29 3.30591 356.002 3.52189ZM356.709 7.04414C356.349 7.04414 356.058 6.75237 356.058 6.39334C356.056 6.16883 355.974 4.17286 353.843 4.17286C353.484 4.17286 353.193 3.88204 353.193 3.52207C353.193 3.16209 353.484 2.87032 353.843 2.87032C355.972 2.87032 356.056 0.879096 356.058 0.648902C356.06 0.289874 356.35 0 356.709 0C357.063 0 357.353 0.285138 357.358 0.639429V0.640376V0.641323V0.642271V0.643218V0.644165V0.645113V0.64606V0.647007V0.648902C357.36 0.879096 357.444 2.87032 359.574 2.87032C359.933 2.87032 360.224 3.16209 360.224 3.52207C360.224 3.88204 359.933 4.17286 359.574 4.17286C357.421 4.17286 357.358 6.16599 357.358 6.39334C357.358 6.75237 357.067 7.04414 356.709 7.04414Z" fill="#A6A6FF"/>
<path fill-rule="evenodd" clip-rule="evenodd" d="M246.968 47.5381C246.968 47.5381 246.968 48.9912 245.518 48.9912C246.968 48.9912 246.968 50.4444 246.968 50.4444C246.968 50.4444 246.968 48.9912 248.418 48.9912C246.968 48.9912 246.968 47.5381 246.968 47.5381" fill="#A6A6FF"/>
<path fill-rule="evenodd" clip-rule="evenodd" d="M246.611 48.9917C246.757 49.1007 246.875 49.2305 246.969 49.3697C247.062 49.2305 247.181 49.1007 247.326 48.9917C247.181 48.8828 247.062 48.753 246.969 48.6147C246.875 48.753 246.757 48.8828 246.611 48.9917ZM246.969 50.7751C246.787 50.7751 246.64 50.6264 246.64 50.4445C246.639 50.3318 246.597 49.321 245.518 49.321C245.337 49.321 245.189 49.1742 245.189 48.9913C245.189 48.8094 245.337 48.6617 245.518 48.6617C246.596 48.6617 246.639 47.6537 246.64 47.5372C246.641 47.3553 246.787 47.2085 246.969 47.2085C247.149 47.2085 247.295 47.3534 247.298 47.5325V47.5334V47.5344V47.5353V47.5363V47.5372C247.299 47.6537 247.341 48.6617 248.419 48.6617C248.601 48.6617 248.748 48.8094 248.748 48.9913C248.748 49.1742 248.601 49.321 248.419 49.321C247.329 49.321 247.298 50.3299 247.298 50.4445C247.298 50.6264 247.15 50.7751 246.969 50.7751Z" fill="#A6A6FF"/>
<path fill-rule="evenodd" clip-rule="evenodd" d="M1.77858 40.7788C1.77858 40.7788 1.77858 42.232 0.328125 42.232C1.77858 42.232 1.77858 43.6851 1.77858 43.6851C1.77858 43.6851 1.77858 42.232 3.22903 42.232C1.77858 42.232 1.77858 40.7788 1.77858 40.7788" fill="#A6A6FF"/>
<path fill-rule="evenodd" clip-rule="evenodd" d="M1.422 42.2316C1.56761 42.3406 1.6858 42.4704 1.77941 42.6087C1.87301 42.4704 1.99121 42.3406 2.13682 42.2316C1.99121 42.1218 1.87301 41.9929 1.77941 41.8546C1.6858 41.9929 1.56761 42.1218 1.422 42.2316ZM1.7795 44.0155C1.59795 44.0155 1.45045 43.8677 1.45045 43.6859C1.4495 43.5722 1.4079 42.5624 0.329046 42.5624C0.147503 42.5624 0 42.4146 0 42.2327C0 42.0508 0.147503 41.903 0.329046 41.903C1.40695 41.903 1.4495 40.8951 1.45045 40.7786C1.45139 40.5967 1.59795 40.4499 1.7795 40.4499C1.95915 40.4499 2.1057 40.5939 2.10854 40.7739V40.7748V40.7758V40.7767V40.7777V40.7786C2.10949 40.8951 2.15204 41.903 3.22994 41.903C3.41149 41.903 3.55899 42.0508 3.55899 42.2327C3.55899 42.4146 3.41149 42.5624 3.22994 42.5624C2.13974 42.5624 2.10854 43.5712 2.10854 43.6859C2.10854 43.8677 1.96104 44.0155 1.7795 44.0155Z" fill="#A6A6FF"/>
<path fill-rule="evenodd" clip-rule="evenodd" d="M160.468 245.685L168.835 292.943L193.257 288.883L185.447 241.273L160.468 245.685Z" fill="#00BBC4"/>
<path fill-rule="evenodd" clip-rule="evenodd" d="M164.447 248.458L182.615 245.249L189.312 286.07L171.627 289.01L164.447 248.458Z" fill="#6CD8E3"/>
<path fill-rule="evenodd" clip-rule="evenodd" d="M173.512 249.521C172.968 249.617 172.605 250.136 172.7 250.68L173.831 257.11C173.927 257.654 174.446 258.017 174.989 257.921L175.609 257.811C176.153 257.715 176.516 257.196 176.42 256.653L175.289 250.223C175.194 249.679 174.675 249.316 174.131 249.412L173.512 249.521ZM176.349 260.257C179.68 259.964 182.626 262.425 182.915 265.741C183.204 269.058 180.729 271.994 177.397 272.287C174.066 272.579 171.12 270.119 170.831 266.802C170.542 263.486 173.017 260.549 176.349 260.257ZM177.257 276.61C177.171 276.064 177.544 275.552 178.089 275.465L178.71 275.367C179.256 275.28 179.768 275.652 179.854 276.198L180.873 282.646C180.959 283.192 180.586 283.704 180.041 283.791L179.42 283.889C178.874 283.976 178.362 283.604 178.276 283.059L177.257 276.61Z" fill="#00BBC4"/>
<path fill-rule="evenodd" clip-rule="evenodd" d="M126.829 249.875L152.961 290.101L173.859 276.803L148.101 236.035L126.829 249.875Z" fill="#00BBC4"/>
<path fill-rule="evenodd" clip-rule="evenodd" d="M131.575 250.869L147.047 240.803L169.132 275.758L154 285.387L131.575 250.869Z" fill="#6CD8E3"/>
<path fill-rule="evenodd" clip-rule="evenodd" d="M140.334 248.302C139.871 248.603 139.74 249.223 140.04 249.687L143.588 255.161C143.888 255.624 144.507 255.756 144.97 255.455L145.499 255.11C145.962 254.809 146.093 254.189 145.793 253.726L142.245 248.252C141.945 247.788 141.326 247.657 140.863 247.958L140.334 248.302ZM147.134 257.073C150.087 255.5 153.759 256.61 155.318 259.549C156.877 262.488 155.743 266.16 152.79 267.734C149.836 269.308 146.165 268.197 144.605 265.258C143.046 262.319 144.18 258.647 147.134 257.073ZM154.346 271.77C154.053 271.302 154.196 270.684 154.664 270.391L155.199 270.056C155.667 269.763 156.283 269.905 156.576 270.374L160.027 275.91C160.32 276.378 160.177 276.996 159.709 277.289L159.174 277.624C158.706 277.917 158.09 277.774 157.797 277.306L154.346 271.77Z" fill="#00BBC4"/>
<path fill-rule="evenodd" clip-rule="evenodd" d="M348.509 160.393L321.071 199.736L341.206 214.167L369.286 174.969L348.509 160.393Z" fill="#00BBC4"/>
<path fill-rule="evenodd" clip-rule="evenodd" d="M349.367 165.173L364.479 175.775L340.403 209.384L325.823 198.934L349.367 165.173Z" fill="#6CD8E3"/>
<path fill-rule="evenodd" clip-rule="evenodd" d="M355.026 172.349C354.573 172.031 353.951 172.141 353.634 172.594L349.897 177.941C349.581 178.394 349.691 179.018 350.143 179.335L350.659 179.697C351.111 180.014 351.734 179.904 352.05 179.452L355.787 174.105C356.104 173.652 355.994 173.028 355.542 172.711L355.026 172.349ZM349.453 181.948C352.015 184.102 352.361 187.929 350.225 190.48C348.089 193.03 344.267 193.353 341.705 191.199C339.143 189.045 338.797 185.218 340.933 182.667C343.069 180.117 346.891 179.794 349.453 181.948ZM338.553 194.156C338.878 193.709 339.503 193.61 339.949 193.935L340.459 194.306C340.905 194.631 341.004 195.257 340.68 195.704L336.851 200.985C336.526 201.432 335.901 201.531 335.455 201.206L334.945 200.835C334.499 200.51 334.4 199.884 334.724 199.437L338.553 194.156Z" fill="#00BBC4"/>
<path fill-rule="evenodd" clip-rule="evenodd" d="M322.824 144.569L322.036 192.559L346.783 193.242L348.184 145.013L322.824 144.569Z" fill="#00BBC4"/>
<path fill-rule="evenodd" clip-rule="evenodd" d="M326.203 148.053L344.649 148.376L343.447 189.727L325.527 189.233L326.203 148.053Z" fill="#6CD8E3"/>
<path fill-rule="evenodd" clip-rule="evenodd" d="M334.898 150.83C334.346 150.821 333.891 151.26 333.881 151.813L333.769 158.341C333.759 158.893 334.199 159.348 334.751 159.358L335.38 159.369C335.933 159.379 336.388 158.939 336.398 158.387L336.51 151.859C336.52 151.307 336.08 150.851 335.528 150.842L334.898 150.83ZM335.638 161.911C338.964 162.261 341.388 165.24 341.041 168.552C340.694 171.863 337.706 174.271 334.379 173.92C331.053 173.57 328.629 170.59 328.976 167.279C329.323 163.968 332.311 161.56 335.638 161.911ZM333.416 178.137C333.436 177.585 333.898 177.153 334.45 177.173L335.079 177.195C335.631 177.214 336.063 177.678 336.044 178.23L335.818 184.755C335.799 185.307 335.336 185.738 334.784 185.719L334.155 185.697C333.603 185.677 333.171 185.214 333.19 184.662L333.416 178.137Z" fill="#00BBC4"/>
<path fill-rule="evenodd" clip-rule="evenodd" d="M277.894 50.2781L295.885 94.7607L318.932 85.7019L301.412 40.7591L277.894 50.2781Z" fill="#00BBC4"/>
<path fill-rule="evenodd" clip-rule="evenodd" d="M282.364 52.1621L299.47 45.2388L314.491 83.7733L297.803 90.333L282.364 52.1621Z" fill="#6CD8E3"/>
<path fill-rule="evenodd" clip-rule="evenodd" d="M291.452 51.3151C290.94 51.5224 290.693 52.1056 290.899 52.6178L293.339 58.6705C293.546 59.1826 294.128 59.4298 294.64 59.2225L295.224 58.9859C295.736 58.7786 295.984 58.1953 295.777 57.6831L293.338 51.6305C293.131 51.1183 292.549 50.8711 292.037 51.0785L291.452 51.3151ZM296.456 61.2245C299.655 60.2438 303.047 62.0358 304.017 65.219C304.988 68.4023 303.175 71.7899 299.976 72.7705C296.777 73.7512 293.385 71.9592 292.415 68.776C291.444 65.5927 293.257 62.2051 296.456 61.2245ZM300.738 77.0315C300.541 76.5157 300.799 75.9369 301.314 75.7386L301.903 75.5122C302.418 75.3138 302.996 75.5711 303.194 76.0869L305.528 82.1812C305.725 82.697 305.467 83.2758 304.952 83.4742L304.364 83.7005C303.848 83.8989 303.27 83.6416 303.073 83.1259L300.738 77.0315Z" fill="#00BBC4"/>
<path fill-rule="evenodd" clip-rule="evenodd" d="M309.128 35.0376L308.341 83.0269L333.088 83.7099L334.489 35.4816L309.128 35.0376Z" fill="#00BBC4"/>
<path fill-rule="evenodd" clip-rule="evenodd" d="M312.508 38.5205L330.953 38.8436L329.752 80.1952L311.832 79.7006L312.508 38.5205Z" fill="#6CD8E3"/>
<path fill-rule="evenodd" clip-rule="evenodd" d="M321.205 41.2987C320.653 41.2889 320.197 41.7287 320.188 42.2809L320.075 48.8089C320.066 49.3611 320.506 49.8167 321.058 49.8265L321.687 49.8376C322.239 49.8473 322.695 49.4076 322.704 48.8554L322.817 42.3273C322.826 41.7751 322.386 41.3195 321.834 41.3098L321.205 41.2987ZM321.944 52.3785C325.27 52.7292 327.694 55.7084 327.347 59.0195C327 62.3306 324.012 64.739 320.686 64.3882C317.36 64.0375 314.936 61.0583 315.283 57.7472C315.63 54.4361 318.618 52.0277 321.944 52.3785ZM319.723 68.6049C319.742 68.0529 320.205 67.6212 320.757 67.6406L321.386 67.6627C321.938 67.6821 322.37 68.1453 322.351 68.6973L322.125 75.2223C322.105 75.7743 321.642 76.206 321.091 76.1866L320.461 76.1645C319.91 76.1451 319.478 75.6819 319.497 75.1299L319.723 68.6049Z" fill="#00BBC4"/>
<path fill-rule="evenodd" clip-rule="evenodd" d="M342.414 44.0299L321.458 87.1897L343.598 98.2867L365.212 55.1702L342.414 44.0299Z" fill="#00BBC4"/>
<path fill-rule="evenodd" clip-rule="evenodd" d="M344.01 48.6167L360.591 56.7195L342.059 93.6883L326.027 85.6525L344.01 48.6167Z" fill="#6CD8E3"/>
<path fill-rule="evenodd" clip-rule="evenodd" d="M350.719 54.819C350.223 54.5765 349.624 54.7825 349.383 55.2792L346.527 61.146C346.286 61.6426 346.492 62.2418 346.988 62.4843L347.555 62.7613C348.051 63.0038 348.649 62.7978 348.891 62.3011L351.746 56.4343C351.988 55.9377 351.781 55.3385 351.285 55.096L350.719 54.819ZM346.716 65.1749C349.583 66.9013 350.523 70.6272 348.813 73.4805C347.102 76.3339 343.377 77.2507 340.51 75.5244C337.643 73.798 336.702 70.072 338.413 67.2187C340.124 64.3654 343.848 63.4485 346.716 65.1749ZM337.857 78.9394C338.108 78.447 338.709 78.2514 339.201 78.5026L339.763 78.7894C340.255 79.0406 340.45 79.6433 340.2 80.1356L337.243 85.9516C336.993 86.4439 336.391 86.6395 335.899 86.3884L335.337 86.1015C334.846 85.8504 334.65 85.2477 334.9 84.7553L337.857 78.9394Z" fill="#00BBC4"/>
<path fill-rule="evenodd" clip-rule="evenodd" d="M81.8143 86.9501C84.5204 84.9019 89.1659 85.2229 93.108 87.9725C97.0503 90.7221 99.0195 95.0147 98.1166 98.321L98.3595 98.4901L97.4499 99.8392L97.4471 99.837L97.3682 99.9609C95.1289 103.283 89.6904 103.467 85.1087 100.423L84.8402 100.24C80.204 97.0065 78.2971 91.6393 80.58 88.2516L80.6637 88.131V88.131L80.6621 88.1301L81.5716 86.7807L81.8143 86.9501Z" fill="#FFA900"/>
<path fill-rule="evenodd" clip-rule="evenodd" d="M98.3583 98.4904C100.642 95.1026 98.7341 89.7354 94.0981 86.5019C89.4621 83.2684 83.8534 83.3935 81.5704 86.781C79.2872 90.1687 81.1943 95.536 85.8303 98.7695C90.4663 102.003 96.0751 101.878 98.3583 98.4904Z" fill="#FFC74A"/>
<path fill-rule="evenodd" clip-rule="evenodd" d="M98.5697 98.1494C98.5035 98.2648 98.4336 98.3789 98.3584 98.4904C97.0924 100.369 94.8029 101.242 92.2246 101.098C94.4776 100.514 96.6127 99.4561 98.5697 98.1494ZM90.4107 84.6755C90.4465 84.9152 90.4525 85.1566 90.414 85.4027C90.36 85.7492 89.9989 86.3645 89.7147 86.6289C88.6822 87.5908 87.2319 88.0028 85.7344 87.9254C84.2846 87.8505 82.9008 87.408 81.6016 86.7388C83.3099 84.2552 86.8242 83.555 90.4107 84.6755Z" fill="#FFE39C"/>
<path fill-rule="evenodd" clip-rule="evenodd" d="M86.7625 97.0519C90.3253 99.5369 94.6103 99.4789 96.3336 96.922C98.0569 94.3652 96.5657 90.2781 93.0026 87.7931C89.4398 85.3081 85.1545 85.3664 83.4315 87.9232C81.7081 90.48 83.1996 94.5669 86.7625 97.0519" fill="#FF9700"/>
<path fill-rule="evenodd" clip-rule="evenodd" d="M86.7656 97.3836C90.2425 99.8086 94.4141 99.767 96.0831 97.2906C97.7522 94.8142 96.2866 90.8411 92.8096 88.4161C89.3324 85.991 85.1612 86.0324 83.4921 88.5087C81.8231 90.9851 83.2887 94.9585 86.7656 97.3836" fill="#FFA900"/>
<path fill-rule="evenodd" clip-rule="evenodd" d="M93.9435 97.0161C90.7998 98.4596 87.2706 98.8341 84.1752 97.4167C81.8287 95.1839 80.5357 92.3738 80.6126 89.8764C82.4753 90.7747 84.4733 91.2965 86.5631 91.1939C88.8493 91.0815 91.1015 90.1549 92.5499 88.2994C93.0645 87.64 93.3858 86.9006 93.538 86.1318C93.7264 86.2503 93.914 86.3724 94.0995 86.5019C96.8474 88.4184 98.6365 91.0846 99.1626 93.6442C97.5483 94.9878 95.7803 96.1727 93.9435 97.0161" fill="white" fill-opacity="0.2"/>
<path fill-rule="evenodd" clip-rule="evenodd" d="M110.924 74.1918C114.283 74.6606 117.341 78.1786 118.188 82.9155C119.035 87.6527 117.398 92.083 114.426 93.7812L114.478 94.0729L112.883 94.3825L112.882 94.3789L112.739 94.4107C108.811 95.1735 104.835 91.4509 103.744 86.0523L103.684 85.7329C102.687 80.162 105.127 75.0159 109.132 74.2377L109.277 74.2117V74.2117L109.276 74.2099L110.872 73.9001L110.924 74.1918Z" fill="#FFA900"/>
<path fill-rule="evenodd" clip-rule="evenodd" d="M114.479 94.0737C118.485 93.2957 120.924 88.1492 119.928 82.5785C118.932 77.0078 114.878 73.1229 110.873 73.9009C106.867 74.6789 104.428 79.8252 105.424 85.3958C106.42 90.9663 110.474 94.8515 114.479 94.0737Z" fill="#FFC74A"/>
<path fill-rule="evenodd" clip-rule="evenodd" d="M114.869 93.9824C114.741 94.017 114.611 94.0482 114.479 94.0737C112.258 94.5052 110.023 93.5008 108.302 91.5723C110.307 92.7556 112.563 93.5199 114.869 93.9824ZM118.611 78.6755C118.467 78.8703 118.301 79.0452 118.1 79.192C117.818 79.3988 117.128 79.5781 116.74 79.5637C115.331 79.5124 114.015 78.7763 113.011 77.6607C112.039 76.5806 111.372 75.2874 110.926 73.8938C113.887 73.3479 116.866 75.3423 118.611 78.6755Z" fill="#FFE39C"/>
<path fill-rule="evenodd" clip-rule="evenodd" d="M107.294 84.8386C108.06 89.1198 111.131 92.1144 114.154 91.5273C117.177 90.9402 119.007 86.9937 118.241 82.7123C117.476 78.4312 114.405 75.4366 111.382 76.0239C108.359 76.611 106.529 80.5574 107.294 84.8386" fill="#FF9700"/>
<path fill-rule="evenodd" clip-rule="evenodd" d="M107.062 85.0767C107.809 89.2546 110.788 92.1804 113.716 91.6118C116.644 91.0431 118.412 87.1954 117.665 83.0175C116.917 78.8394 113.939 75.9136 111.011 76.4822C108.083 77.0509 106.315 80.8988 107.062 85.0767" fill="#FFA900"/>
<path fill-rule="evenodd" clip-rule="evenodd" d="M112.397 89.9024C109.155 88.696 106.395 86.4606 105.207 83.2655C105.124 80.0244 106.193 77.1213 108.01 75.4098C108.693 77.3646 109.737 79.1491 111.288 80.557C112.983 82.0972 115.23 83.0374 117.564 82.7515C118.393 82.6498 119.142 82.3545 119.792 81.9187C119.842 82.136 119.888 82.3553 119.928 82.5782C120.519 85.8801 119.902 89.0328 118.467 91.2154C116.378 91.0219 114.291 90.6072 112.397 89.9024" fill="white" fill-opacity="0.2"/>
<path fill-rule="evenodd" clip-rule="evenodd" d="M91.2148 63.6586C94.5739 64.1274 97.6322 67.6454 98.4791 72.3823C99.326 77.1195 97.6888 81.5498 94.7168 83.248L94.7692 83.5397L93.1739 83.8493L93.1734 83.8457L93.0302 83.8775C89.1019 84.6403 85.1265 80.9177 84.0354 75.5191L83.9746 75.1997C82.9784 69.6288 85.4182 64.4827 89.4235 63.7045L89.5678 63.6785V63.6785L89.5672 63.6767L91.1627 63.3669L91.2148 63.6586Z" fill="#FFA900"/>
<path fill-rule="evenodd" clip-rule="evenodd" d="M94.7703 83.5405C98.7758 82.7625 101.215 77.616 100.219 72.0453C99.2232 66.4746 95.1689 62.5897 91.1638 63.3677C87.1583 64.1457 84.7187 69.292 85.7147 74.8626C86.7109 80.4331 90.765 84.3183 94.7703 83.5405Z" fill="#FFC74A"/>
<path fill-rule="evenodd" clip-rule="evenodd" d="M95.1586 83.4492C95.0302 83.4838 94.9004 83.515 94.7684 83.5405C92.5475 83.972 90.3121 82.9676 88.5908 81.0391C90.5959 82.2224 92.8525 82.9867 95.1586 83.4492ZM98.9003 68.1413C98.7564 68.3361 98.5903 68.5111 98.3894 68.6578C98.1067 68.8646 97.417 69.0439 97.0295 69.0296C95.6205 68.9782 94.3042 68.2421 93.2999 67.1265C92.3276 66.0464 91.6615 64.7532 91.2151 63.3596C94.1759 62.8137 97.1551 64.8082 98.9003 68.1413Z" fill="#FFE39C"/>
<path fill-rule="evenodd" clip-rule="evenodd" d="M87.5853 74.3054C88.3507 78.5865 91.4216 81.5812 94.4447 80.9941C97.4679 80.407 99.2981 76.4605 98.5325 72.1791C97.767 67.898 94.6958 64.9034 91.6728 65.4907C88.6496 66.0778 86.8198 70.0242 87.5853 74.3054" fill="#FF9700"/>
<path fill-rule="evenodd" clip-rule="evenodd" d="M87.3528 74.5435C88.0997 78.7214 91.0788 81.6472 94.0068 81.0786C96.9348 80.5099 98.7027 76.6622 97.9557 72.4843C97.2085 68.3062 94.2298 65.3803 91.3018 65.949C88.3738 66.5177 86.6058 70.3656 87.3528 74.5435" fill="#FFA900"/>
<path fill-rule="evenodd" clip-rule="evenodd" d="M92.6881 79.3692C89.4464 78.1628 86.6864 75.9274 85.4981 72.7323C85.4147 69.4912 86.4838 66.5881 88.3009 64.8766C88.9839 66.8314 90.0284 68.6159 91.5786 70.0238C93.2745 71.564 95.521 72.5042 97.8548 72.2183C98.6841 72.1166 99.4331 71.8213 100.083 71.3855C100.133 71.6028 100.179 71.8221 100.219 72.045C100.81 75.3469 100.193 78.4996 98.7584 80.6822C96.6686 80.4887 94.5821 80.074 92.6881 79.3692" fill="white" fill-opacity="0.2"/>
<path fill-rule="evenodd" clip-rule="evenodd" d="M91.4555 99.3387L92.0355 100.387L93.0964 100.961L92.0355 101.534L91.4555 102.583L90.8754 101.534L89.8145 100.961L90.8754 100.387L91.4555 99.3387ZM87.5545 87.2969L88.044 88.1819L88.939 88.6655L88.044 89.1496L87.5545 90.0343L87.065 89.1496L86.1699 88.6655L87.065 88.1819L87.5545 87.2969ZM104.544 82.6582L105.214 83.8683L106.438 84.5301L105.214 85.1918L104.544 86.4019L103.874 85.1918L102.65 84.5301L103.874 83.8683L104.544 82.6582ZM86.1999 64.7822L87.1342 66.4712L88.8431 67.3948L87.1342 68.3186L86.1999 70.0079L85.2655 68.3186L83.5566 67.3948L85.2655 66.4712L86.1999 64.7822ZM109.705 69.6729L110.681 71.4359L112.464 72.4005L110.681 73.3647L109.705 75.128L108.729 73.3647L106.945 72.4005L108.729 71.4359L109.705 69.6729Z" fill="white"/>
</svg>
