<svg width="24" height="24" viewBox="0 0 24 24" fill="none" xmlns="http://www.w3.org/2000/svg">
<path fill-rule="evenodd" clip-rule="evenodd" d="M10.8357 2.36116C11.5337 1.87901 12.4688 1.87992 13.165 2.36207L14.858 3.53377L16.9374 3.53286C17.8125 3.53286 18.5914 4.09143 18.874 4.9229L19.4984 6.75051L21.1169 7.8731C21.8676 8.39345 22.1857 9.36138 21.8903 10.2256L21.285 12.0014L21.8903 13.7753C22.1866 14.6404 21.8676 15.6084 21.116 16.1278L19.4956 17.2513L18.874 19.078C18.5914 19.9086 17.8125 20.4671 16.9374 20.4671H14.8517L13.165 21.6388C12.816 21.879 12.4079 22 11.9999 22C11.5927 22 11.1847 21.8799 10.8375 21.6407L9.14171 20.4653L7.06329 20.4671C6.1863 20.4671 5.40746 19.9077 5.12574 19.0753L4.5023 17.2495L2.88374 16.1269C2.13398 15.6102 1.81408 14.6423 2.10853 13.7762L2.7147 11.9986L2.10944 10.2247C1.81499 9.35865 2.13398 8.39163 2.88464 7.87219L4.50503 6.7496L5.12574 4.92199C5.40746 4.09234 6.1863 3.53286 7.06329 3.53286H9.14898L10.8357 2.36116ZM15.7068 8.28963C15.3158 7.89826 14.6838 7.89826 14.2929 8.28963L8.29323 14.2953C7.90226 14.6867 7.90226 15.3193 8.29323 15.7106C8.48822 15.9058 8.7442 16.0039 9.00019 16.0039C9.25617 16.0039 9.51216 15.9058 9.70714 15.7106L15.7068 9.70496C16.0977 9.31359 16.0977 8.681 15.7068 8.28963ZM14.5 13C13.672 13 13 13.672 13 14.5C13 15.328 13.672 16 14.5 16C15.328 16 16 15.328 16 14.5C16 13.672 15.328 13 14.5 13ZM9.5 8C8.672 8 8 8.672 8 9.5C8 10.328 8.672 11 9.5 11C10.328 11 11 10.328 11 9.5C11 8.672 10.328 8 9.5 8Z" fill="#6AC90F"/>
</svg>
