<svg width="24" height="24" viewBox="0 0 24 24" fill="none" xmlns="http://www.w3.org/2000/svg">
<path fill-rule="evenodd" clip-rule="evenodd" d="M19 15C21.2091 15 23 16.7909 23 19C23 21.2091 21.2091 23 19 23H11C8.79086 23 7 21.2091 7 19C7 16.7909 8.79086 15 11 15H19ZM14 11H3V19H5C5.553 19 6 19.447 6 20C6 20.553 5.553 21 5 21H2C1.44989 21 1 20.5484 1 20V10C1 9.45319 1.45093 9 2 9H4V5.5C4 3.09577 5.7283 1.228 8.0622 1.0194L8.28274 1.00474L8.5 1C10.9794 1 12.8882 2.83801 12.9953 5.28274L13 5.5V9H15C15.5468 9 16 9.45329 16 10V13C16 13.553 15.553 14 15 14C14.447 14 14 13.553 14 13V11ZM12 18C11.447 18 11 18.447 11 19C11 19.553 11.447 20 12 20C12.553 20 13 19.553 13 19C13 18.447 12.553 18 12 18ZM15 18C14.447 18 14 18.447 14 19C14 19.553 14.447 20 15 20C15.553 20 16 19.553 16 19C16 18.447 15.553 18 15 18ZM18 18C17.447 18 17 18.447 17 19C17 19.553 17.447 20 18 20C18.553 20 19 19.553 19 19C19 18.447 18.553 18 18 18ZM8.5 3C7.11019 3 6.08482 3.96979 6.00501 5.32821L6 5.5V9H11V5.5C11 4.1681 10.1093 3.1709 8.83952 3.01987L8.67179 3.00501L8.5 3Z" fill="white"/>
</svg>
