<svg width="54" height="54" viewBox="0 0 54 54" fill="none" xmlns="http://www.w3.org/2000/svg">
<path fill-rule="evenodd" clip-rule="evenodd" d="M22.8339 13.8096C31.1652 13.8096 29.7767 13.8096 29.7767 13.8096C38.5816 13.8096 46.3421 22.9205 46.3421 29.0837C46.3421 35.2468 49.2164 33.9436 49.2164 40.1921C49.2164 46.4406 41.3587 51.3005 32.5538 51.3005H21.4454C12.6405 51.3005 4.78271 43.4407 4.78271 34.6379L4.78271 29.0837C4.78271 20.2808 14.5026 13.8096 22.8339 13.8096Z" fill="#D0E5FF"/>
<path fill-rule="evenodd" clip-rule="evenodd" d="M24.2998 13.5005L26.9572 13.5005C26.9572 13.5005 28.0951 14.4078 29.0313 15.9533C29.9676 17.4988 29.8155 18.7515 29.2174 18.8742C28.2298 19.0769 28.0721 18.0968 26.935 16.2413C25.798 14.3858 24.2998 13.5005 24.2998 13.5005Z" fill="#8FBAFC"/>
<path fill-rule="evenodd" clip-rule="evenodd" d="M24.1678 31.939C23.9872 31.4224 23.6963 30.9424 23.315 30.5286C22.7453 29.9104 21.9919 29.4589 21.1383 29.2358C18.8565 28.6395 16.5113 29.8442 15.926 31.9746C15.7808 32.5029 16.1023 33.0459 16.644 33.1875C17.147 33.3189 17.663 33.058 17.8504 32.5971L17.8876 32.4872C18.1732 31.448 19.3817 30.8272 20.6127 31.1489C21.0859 31.2725 21.4973 31.5191 21.8045 31.8525C21.9642 32.0258 22.0922 32.219 22.1838 32.4231L22.2456 32.5782C22.4266 33.0959 23.0037 33.3724 23.5345 33.1959C24.0653 33.0194 24.3488 32.4566 24.1678 31.939Z" fill="#3262C4"/>
<path fill-rule="evenodd" clip-rule="evenodd" d="M43.6078 31.939C43.4271 31.4224 43.1362 30.9424 42.7549 30.5286C42.1852 29.9104 41.4318 29.4589 40.5782 29.2358C38.2964 28.6395 35.9513 29.8442 35.3659 31.9746C35.2208 32.5029 35.5422 33.0459 36.0839 33.1875C36.5869 33.3189 37.103 33.058 37.2903 32.5971L37.3276 32.4872C37.6131 31.448 38.8216 30.8272 40.0526 31.1489C40.5258 31.2725 40.9372 31.5191 41.2445 31.8525C41.4042 32.0258 41.5322 32.219 41.6238 32.4231L41.6856 32.5782C41.8666 33.0959 42.4436 33.3724 42.9744 33.1959C43.5052 33.0194 43.7888 32.4566 43.6078 31.939Z" fill="#3262C4"/>
<path fill-rule="evenodd" clip-rule="evenodd" d="M27.6939 33.249H34.6367C37.3208 33.249 39.4966 35.4249 39.4966 38.109C39.4966 40.793 37.3208 42.9689 34.6367 42.9689H27.6939C25.0099 42.9689 22.834 40.793 22.834 38.109C22.834 35.4249 25.0099 33.249 27.6939 33.249Z" fill="#8FBAFC"/>
<path fill-rule="evenodd" clip-rule="evenodd" d="M26.9999 36.0264C27.7668 36.0264 28.3884 36.648 28.3884 37.4149V38.8035C28.3884 39.5704 27.7668 40.192 26.9999 40.192C26.233 40.192 25.6113 39.5704 25.6113 38.8035V37.4149C25.6113 36.648 26.233 36.0264 26.9999 36.0264Z" fill="#5B90E9"/>
<path fill-rule="evenodd" clip-rule="evenodd" d="M35.3309 36.0264C36.0978 36.0264 36.7195 36.648 36.7195 37.4149V38.8035C36.7195 39.5704 36.0978 40.192 35.3309 40.192C34.5641 40.192 33.9424 39.5704 33.9424 38.8035V37.4149C33.9424 36.648 34.5641 36.0264 35.3309 36.0264Z" fill="#5B90E9"/>
<path fill-rule="evenodd" clip-rule="evenodd" d="M22.834 45.7461H31.1653C31.1653 47.2798 29.5667 48.5232 27.5947 48.5232H26.4045C24.503 48.5232 22.9486 47.3671 22.84 45.9093L22.834 45.7461Z" fill="#3262C4"/>
<path fill-rule="evenodd" clip-rule="evenodd" d="M9.9122 15.3752L18.6684 17.7241L7.55994 29.119L6.17139 17.7241C6.31025 16.1966 7.66106 15.071 9.18852 15.2098C9.43606 15.2323 9.67946 15.288 9.9122 15.3752Z" fill="#D0E5FF"/>
<path fill-rule="evenodd" clip-rule="evenodd" d="M41.3104 15.3752L32.5542 17.9753L43.6626 29.3702L45.0512 17.7241C44.9123 16.1966 43.5615 15.071 42.034 15.2098C41.7865 15.2323 41.5431 15.288 41.3104 15.3752Z" fill="#D0E5FF"/>
<ellipse cx="25.875" cy="7.55145" rx="3.04103" ry="4.87371" fill="#FF9333"/>
<ellipse cx="24.5686" cy="7.56111" rx="3.12424" ry="4.85994" fill="#FFB36F"/>
<path fill-rule="evenodd" clip-rule="evenodd" d="M8.94824 18.9751C8.94824 18.4228 9.39596 17.9751 9.94824 17.9751H11.7253L8.94824 20.7522V18.9751Z" fill="#8FBAFC"/>
<path fill-rule="evenodd" clip-rule="evenodd" d="M42.2739 18.9751C42.2739 18.4228 41.8262 17.9751 41.2739 17.9751H39.4968L42.2739 20.7522V18.9751Z" fill="#8FBAFC"/>
</svg>
