<?xml version="1.0" encoding="utf-8"?>
<!-- Generator: Adobe Illustrator 27.0.0, SVG Export Plug-In . SVG Version: 6.00 Build 0)  -->
<svg version="1.1" id="Capa_1" xmlns="http://www.w3.org/2000/svg" xmlns:xlink="http://www.w3.org/1999/xlink" x="0px" y="0px"
	 viewBox="0 0 16 19.9998493" style="enable-background:new 0 0 16 19.9998493;" xml:space="preserve">
<style type="text/css">
	.st0{fill-rule:evenodd;clip-rule:evenodd;fill:#FFFFFF;}
</style>
<g>
	<path class="st0" d="M10.9040527,7.3039551l-4.2180176,4.2810059l-1.6000977-1.5788574
		C4.6931152,9.6179199,4.059082,9.6220703,3.6721191,10.0148926c-0.3881836,0.394043-0.3840332,1.0270996,0.0087891,1.4150391
		l2.3129883,2.2819824c0.394043,0.3881836,1.0270996,0.3830566,1.4150391-0.0100098l4.920166-4.9938965
		c0.3879395-0.394043,0.3828125-1.0270996-0.0109863-1.4150391C11.9250488,6.9060059,11.2919922,6.9108887,10.9040527,7.3039551z
		 M8,0c0.315918,0.0170898,0.5639648,0.1279297,0.7451172,0.3349609c1.9699707,2.25,4.5119629,3.1721191,6.2548828,3.1721191
		c0.6320801,0,1,0.5439453,1,1.0019531v6.5859375c0,4.1970215-2.7060547,7.4699707-6.6311035,8.5620117l-1.1018066,0.3059082
		c-0.1750488,0.0490723-0.3591309,0.0490723-0.5341797,0.0012207l-1.1030273-0.3071289
		C2.7050781,18.5649414,0,15.2919922,0,11.0949707V4.5090332c0-0.5009766,0.4060059-1.0019531,1-1.0019531
		c1.7280273,0,4.302002-0.9641113,6.2561035-3.1721191C7.4399414,0.1269531,7.6879883,0.0148926,8,0z"/>
</g>
</svg>
