<svg width="10" height="12" viewBox="0 0 10 12" fill="none" xmlns="http://www.w3.org/2000/svg">
<path fill-rule="evenodd" clip-rule="evenodd" d="M5.00007 0C6.476 0 7.67864 1.22301 7.67864 2.72727V4.36364H8.75007C9.04594 4.36364 9.28578 4.60784 9.28578 4.90909V11.4545C9.28578 11.7558 9.04594 12 8.75007 12H1.25007C0.954203 12 0.714355 11.7558 0.714355 11.4545V4.90909C0.714355 4.60784 0.954203 4.36364 1.25007 4.36364H2.3215V2.72727C2.3215 1.22267 3.52348 0 5.00007 0ZM4.99965 7.0911C4.72492 7.0911 4.49849 7.30167 4.46754 7.57295L4.46394 7.63656V8.72747C4.46394 9.02871 4.70379 9.27292 4.99965 9.27292C5.27439 9.27292 5.50082 9.06235 5.53176 8.79108L5.53537 8.72747V7.63656C5.53537 7.33531 5.29552 7.0911 4.99965 7.0911ZM5.00006 1.09152C4.11188 1.09152 3.39292 1.82379 3.39292 2.72788V4.36424H6.60721V2.72788C6.60721 1.82355 5.88844 1.09152 5.00006 1.09152Z" fill="white"/>
</svg>
