<svg width="24" height="24" viewBox="0 0 24 24" fill="none" xmlns="http://www.w3.org/2000/svg">
<path fill-rule="evenodd" clip-rule="evenodd" d="M12 2H11.99C6.47 2 2 6.49 2 12C2 14.19 2.7 16.21 3.9 17.86L2.66 21.57L6.5 20.34C8.07 21.4 9.96 22 12 22C17.51 22 22 17.51 22 12C22 6.49 17.51 2 12 2ZM17.81 16.13C17.57 16.8 16.61 17.37 15.85 17.53C15.32 17.64 14.64 17.73 12.34 16.79C9.63 15.66 7.8 13.02 7.43 12.48C7.4 12.44 7.39 12.41 7.37 12.39H7.36C7.17 12.12 6.19 10.78 6.19 9.38C6.19 7.98 6.88 7.28 7.19 6.97C7.19 6.97 7.2 6.96 7.2 6.94C7.44 6.7 7.84 6.58 8.23 6.58C8.34 6.58 8.44 6.59 8.53 6.59H8.56C8.86 6.6 9 6.62 9.2 7.09C9.27 7.26 9.37 7.5 9.49 7.78C9.75 8.41 10.05 9.15 10.1 9.25C10.17 9.39 10.24 9.59 10.14 9.79C10.05 9.98 9.97 10.06 9.84 10.22C9.84 10.22 9.83 10.23 9.81 10.25C9.75 10.32 9.7 10.39 9.62 10.45C9.53 10.54 9.46 10.62 9.38 10.74H9.37C9.24 10.9 9.1 11.07 9.26 11.35C9.43 11.65 10.02 12.61 10.89 13.38C11.92 14.28 12.76 14.62 13.15 14.78C13.18 14.79 13.21 14.81 13.24 14.82C13.48 14.92 13.77 14.89 13.94 14.71C14.14 14.5 14.37 14.18 14.61 13.84C14.65 13.78 14.7 13.73 14.72 13.68C14.92 13.39 15.18 13.35 15.43 13.45C15.7 13.55 17.13 14.25 17.43 14.41C17.49 14.44 17.54 14.47 17.6 14.48C17.8 14.58 17.93 14.65 17.99 14.74C18.06 14.87 18.06 15.45 17.82 16.14L17.81 16.13Z" fill="#0030B3"/>
</svg>
