<svg width="16" height="20" viewBox="0 0 16 20" fill="none" xmlns="http://www.w3.org/2000/svg">
    <path fill-rule="evenodd" clip-rule="evenodd" d="M13.6552 2.32136C15.1672 3.82236 16.0002 5.81736 16.0002 7.94036C16.0002 9.00881 15.7662 10.0307 15.387 11.0028C14.5673 13.1046 8.82576 19.5911 8.72876 19.6871C8.63176 19.7831 8.3951 20.0005 7.99994 20.0005C7.60479 20.0005 7.37424 19.7831 7.27524 19.6871C7.17624 19.5911 1.50082 13.1046 0.613769 11.0036C0.209856 10.0469 0.000244141 9.0091 0.000244141 7.94036C0.000244141 5.81736 0.833244 3.82236 2.34524 2.32136C5.46324 -0.772637 10.5372 -0.773637 13.6552 2.32136ZM3.75429 3.74073C2.61981 4.86696 2.00024 6.35133 2.00024 7.94036C2.00024 8.73974 2.1555 9.51325 2.45628 10.2257C2.73983 10.8973 4.01754 12.6538 5.79169 14.8354C6.49768 15.7035 7.40062 16.7753 8.00525 17.4848C8.61793 16.7729 9.52419 15.7052 10.2383 14.8314C12.0067 12.6679 13.2738 10.917 13.5237 10.2761C13.8402 9.46469 14.0002 8.69318 14.0002 7.94036C14.0002 6.35133 13.3807 4.86695 12.2463 3.7408C9.90846 1.42023 6.09255 1.42046 3.75429 3.74073ZM7.99994 5.00046C9.6568 5.00046 10.9999 6.34361 10.9999 8.00046C10.9999 9.65732 9.6568 11.0005 7.99994 11.0005C6.34309 11.0005 4.99994 9.65732 4.99994 8.00046C4.99994 6.34361 6.34309 5.00046 7.99994 5.00046ZM7.99994 7.00046C7.44766 7.00046 6.99994 7.44818 6.99994 8.00046C6.99994 8.55275 7.44766 9.00046 7.99994 9.00046C8.55223 9.00046 8.99994 8.55275 8.99994 8.00046C8.99994 7.44818 8.55223 7.00046 7.99994 7.00046Z" fill="#202E44"/>
    </svg>
    