<svg width="16" height="16" viewBox="0 0 16 16" fill="none" xmlns="http://www.w3.org/2000/svg">
<path fill-rule="evenodd" clip-rule="evenodd" d="M10.6663 1.3335C11.0345 1.3335 11.333 1.63197 11.333 2.00016C11.333 2.12099 11.3001 2.23955 11.238 2.34316L10.1602 4.13875C10.9419 4.79118 12.5967 6.55141 13.5984 9.5729C14.1741 11.3102 14.1295 12.7702 13.4733 13.6829C13.0081 14.3262 12.2561 14.6669 11.2978 14.6669H4.68354C3.76649 14.6669 3.02913 14.3176 2.55331 13.6569C1.8805 12.7216 1.81861 11.2709 2.38228 9.5729C3.39052 6.53102 5.05471 4.76812 5.83297 4.12608L4.7613 2.34366C4.57159 2.0281 4.67361 1.61851 4.98917 1.4288C5.09289 1.36644 5.21164 1.3335 5.33266 1.3335H10.6663ZM6.66533 5.33283L6.4661 5.3335C5.48526 6.2095 4.35379 7.85599 3.64525 9.99364C3.2044 11.3217 3.24729 12.341 3.63268 12.8768C3.84872 13.1767 4.17957 13.3336 4.68354 13.3336H11.2978C11.8492 13.3336 12.1942 13.1779 12.3944 12.9022C12.7579 12.3947 12.7889 11.3621 12.3353 9.99314C11.6278 7.85911 10.4978 6.21707 9.51091 5.3335L9.33333 5.33283L9.33329 5.3335H6.66662L6.66533 5.33283ZM9.80131 7.3849C9.90264 7.11423 10.208 6.9769 10.4826 7.0769C10.7586 7.17623 10.8993 7.4769 10.7973 7.74823L9.32531 11.6602C9.22397 11.9296 8.91931 12.0676 8.64464 11.9682C8.36864 11.8676 8.22797 11.5669 8.32931 11.2962L9.80131 7.3849ZM6.89331 7.29223C7.29664 7.29623 7.69931 7.3389 8.09464 7.42156C8.11397 7.42556 8.42931 7.52956 8.38397 7.9149C8.33864 8.2989 7.99397 8.31956 7.97131 8.31623C7.68464 8.2689 7.39597 8.24156 7.10531 8.23423C6.79464 8.23423 6.44331 8.2489 6.44331 8.54423C6.44331 8.8389 6.63597 8.86156 7.08864 8.9829C8.01464 9.2269 8.29597 9.60823 8.29597 10.3789C8.29597 11.3889 7.68464 11.7522 6.62197 11.7522C6.20864 11.7509 5.79664 11.7082 5.39264 11.6256C5.34664 11.6162 5.01331 11.5309 5.07397 11.1049C5.13531 10.6789 5.46731 10.6956 5.51531 10.7029C5.86131 10.7509 6.20864 10.7802 6.55797 10.7909C6.93931 10.7909 7.09797 10.6862 7.09797 10.4322C7.09797 10.1882 6.94197 10.1056 6.54331 9.9809C5.75397 9.7369 5.27931 9.4489 5.27931 8.61023C5.27931 7.61156 5.85397 7.29223 6.89331 7.29223ZM9.48884 2.66683H6.51132L7.2627 3.91666L7.32642 4.00016H8.67492L8.73926 3.91613L9.48884 2.66683Z" fill="#4D5B70"/>
</svg>
