<svg width="24" height="24" viewBox="0 0 24 24" fill="none" xmlns="http://www.w3.org/2000/svg">
<path d="M21.11 7.88C20.79 7.19 20.4 6.52 19.92 5.91C19.67 5.57 19.38 5.24 19.07 4.93C17.79 3.64 16.18 2.74 14.45 2.3C13.95 2.18 13.44 2.09 12.92 2.04C12.62 2.01 12.32 2 12.01 2C11.7 2 11.38 2.01 11.08 2.04H11.07C10.52 2.09 10.01 2.19 9.49001 2.33C7.28001 2.89 5.37001 4.2 4.04001 5.97C3.58001 6.57 3.18001 7.23 2.88001 7.94C2.32001 9.18 2.01001 10.55 2.01001 12C2.01001 13.45 2.33001 14.86 2.90001 16.11C3.21001 16.82 3.61001 17.48 4.08001 18.09C5.43001 19.84 7.34001 21.14 9.55001 21.69C10.05 21.82 10.56 21.91 11.08 21.96C11.38 21.99 11.7 22 12.01 22C12.32 22 12.63 21.99 12.93 21.96H12.94C13.48 21.91 14 21.82 14.51 21.68H14.52C16.72 21.11 18.64 19.81 19.98 18.04C20.44 17.43 20.83 16.77 21.14 16.06C21.7 14.81 22.01 13.45 22.01 12C22.01 10.55 21.7 9.16 21.12 7.88H21.11ZM18 6.7C17.44 6.9 16.88 7.08 16.33 7.22C16.12 6.43 15.87 5.64 15.57 4.84C16.49 5.3 17.32 5.93 18 6.7ZM14.62 14C12.92 13.79 11.2 13.81 9.45001 14.06C9.25001 12.69 9.23001 11.34 9.37001 10C10.15 10.1 10.93 10.15 11.71 10.15C12.65 10.15 13.59 10.08 14.54 9.93C14.74 11.3 14.76 12.66 14.62 14ZM12.81 19.96C12.54 19.99 12.27 20 12 20C11.75 20 11.5 19.99 11.26 19.97C10.69 18.73 10.23 17.51 9.91001 16.31C11.36 16.1 12.8 16.08 14.21 16.26C13.89 17.5 13.43 18.74 12.81 19.96ZM11.18 4.04C11.45 4.01 11.72 4 12 4C12.25 4 12.49 4.01 12.73 4.03C13.3 5.27 13.76 6.49 14.08 7.69C12.63 7.9 11.19 7.92 9.78001 7.74C10.1 6.5 10.56 5.26 11.18 4.04ZM8.28001 4.92C7.97001 5.71 7.72001 6.51 7.53001 7.31C6.99001 7.17 6.46001 7 5.92001 6.79C6.58001 6.03 7.38001 5.39 8.28001 4.92ZM4.00001 12C4.00001 10.85 4.24001 9.76 4.68001 8.77C5.49001 9.1 6.31001 9.36 7.13001 9.58C6.93001 11.21 6.96001 12.85 7.21001 14.52C6.38001 14.74 5.55001 15.01 4.72001 15.33C4.26001 14.32 4.00001 13.19 4.00001 12ZM6.00001 17.3C6.56001 17.09 7.12001 16.92 7.67001 16.78C7.87001 17.57 8.12001 18.36 8.43001 19.16C7.51001 18.7 6.68001 18.07 6.00001 17.3ZM15.71 19.08C16.02 18.29 16.27 17.49 16.46 16.69C17 16.83 17.54 17.01 18.08 17.21C17.41 17.98 16.61 18.62 15.71 19.08ZM16.87 14.43C17.06 12.8 17.03 11.15 16.79 9.47C17.61 9.26 18.44 8.99 19.27 8.67C19.74 9.68 20 10.81 20 12C20 13.19 19.76 14.24 19.32 15.23C18.51 14.91 17.69 14.64 16.87 14.43Z" fill="#0030B3"/>
</svg>
