<svg width="54" height="54" viewBox="0 0 54 54" fill="none" xmlns="http://www.w3.org/2000/svg">
<path fill-rule="evenodd" clip-rule="evenodd" d="M4.15269 23.5514L35.1441 7.07293C36.4608 6.37286 38.0956 6.87269 38.7957 8.18931L47.6687 24.877C48.3688 26.1936 47.8689 27.8285 46.5523 28.5285L15.5608 45.007C14.2442 45.7071 12.6094 45.2072 11.9093 43.8906L3.0363 27.2029C2.33624 25.8863 2.83607 24.2514 4.15269 23.5514Z" fill="#3262C4"/>
<path fill-rule="evenodd" clip-rule="evenodd" d="M7.46914 21.393L41.3731 12.3085C42.8135 11.9225 44.294 12.7773 44.68 14.2177L49.5716 32.4737C49.9576 33.914 49.1028 35.3945 47.6624 35.7805L13.7584 44.865C12.3181 45.251 10.8376 44.3962 10.4516 42.9559L5.55996 24.6999C5.17401 23.2595 6.02879 21.779 7.46914 21.393Z" fill="#5B90E9"/>
<path fill-rule="evenodd" clip-rule="evenodd" d="M13.4998 21.5864H48.5998C50.091 21.5864 51.2998 22.7953 51.2998 24.2864V43.1864C51.2998 44.6776 50.091 45.8864 48.5998 45.8864H13.4998C12.0086 45.8864 10.7998 44.6776 10.7998 43.1864V24.2864C10.7998 22.7953 12.0086 21.5864 13.4998 21.5864Z" fill="#D0E5FF"/>
<path fill-rule="evenodd" clip-rule="evenodd" d="M17.5493 41.8478C17.548 40.3577 16.3397 39.15 14.8493 39.15V41.85H17.5493L17.5493 41.8478H44.5493C44.5505 40.3577 45.7588 39.15 47.2493 39.15V41.85H44.5493V41.8478H47.2493V25.6478H14.8493V41.8478H17.5493ZM13.4998 21.5864H48.5998C50.091 21.5864 51.2998 22.7953 51.2998 24.2864V43.1864C51.2998 44.6776 50.091 45.8864 48.5998 45.8864H13.4998C12.0086 45.8864 10.7998 44.6776 10.7998 43.1864V24.2864C10.7998 22.7953 12.0086 21.5864 13.4998 21.5864ZM47.2498 25.6501V28.3501C45.7586 28.3501 44.5498 27.1413 44.5498 25.6501H47.2498ZM14.8493 25.6501H17.5493C17.5493 27.1413 16.3404 28.3501 14.8493 28.3501V25.6501ZM41.85 32.3976H43.2C43.9455 32.3976 44.55 33.0021 44.55 33.7476C44.55 34.4932 43.9455 35.0976 43.2 35.0976H41.85C41.1044 35.0976 40.5 34.4932 40.5 33.7476C40.5 33.0021 41.1044 32.3976 41.85 32.3976ZM18.8998 32.3976H20.2498C20.9954 32.3976 21.5998 33.0021 21.5998 33.7476C21.5998 34.4932 20.9954 35.0976 20.2498 35.0976H18.8998C18.1543 35.0976 17.5498 34.4932 17.5498 33.7476C17.5498 33.0021 18.1543 32.3976 18.8998 32.3976Z" fill="#8FBAFC"/>
<path fill-rule="evenodd" clip-rule="evenodd" d="M31.0498 27C34.7777 27 37.7998 30.0221 37.7998 33.75C37.7998 37.4779 34.7777 40.5 31.0498 40.5C27.3219 40.5 24.2998 37.4779 24.2998 33.75C24.2998 30.0221 27.3219 27 31.0498 27ZM35.2929 29.7283C34.9614 29.6289 34.6132 29.7965 34.4794 30.1068L34.4524 30.1809L32.4274 36.9309C32.3203 37.288 32.523 37.6643 32.88 37.7714C33.2116 37.8709 33.5597 37.7033 33.6935 37.3929L33.7205 37.3188L35.7455 30.5688C35.8526 30.2117 35.65 29.8354 35.2929 29.7283ZM29.0257 29.6997C28.0262 29.7021 27.0607 30.1396 26.5753 31.0269C26.1783 31.7542 26.2582 32.6807 26.7912 33.2996C27.055 33.6056 27.3588 33.8072 27.7821 33.9987L27.9934 34.0897L28.4365 34.2653L28.5929 34.3215L29.236 34.54L29.4955 34.6342C29.7678 34.7382 29.9439 34.8258 30.1293 34.9464C30.5978 35.2498 30.313 36.2691 29.417 36.4249C28.8187 36.4919 28.2548 36.4081 27.7757 36.2261C27.6586 36.1816 27.5649 36.1389 27.4964 36.1037L27.4499 36.0789L27.3133 35.9959C27.0162 35.8403 26.6427 35.9266 26.4463 36.209C26.2336 36.5149 26.3094 36.9352 26.6156 37.1478C26.7531 37.2433 26.9821 37.3678 27.296 37.4871C27.9678 37.7423 28.7461 37.8579 29.6092 37.7596C31.6964 37.3978 32.4166 34.8201 30.8645 33.8149C30.4865 33.5692 30.1708 33.4327 29.5535 33.2224L29.1182 33.0757L28.9185 33.005L28.7487 32.9397L28.6069 32.8828L28.3496 32.7745C28.0871 32.6563 27.9278 32.5511 27.8142 32.4194C27.6549 32.2345 27.6275 31.9164 27.7601 31.6735C28.0686 31.1095 28.9353 30.8977 29.6941 31.1506L29.9475 31.2374C30.0221 31.2639 30.089 31.2888 30.1556 31.3152L30.2561 31.3563L30.4769 31.454L30.7599 31.587C31.0963 31.7475 31.4992 31.6051 31.6598 31.2689C31.8204 30.9327 31.6779 30.5301 31.3415 30.3696L30.9909 30.2056C30.9232 30.1749 30.8608 30.1474 30.8006 30.1218L30.6239 30.0496L30.4105 29.9702L30.122 29.8712C29.7662 29.7526 29.3941 29.6989 29.0257 29.6997Z" fill="#FF9333"/>
</svg>
