<svg width="54" height="54" viewBox="0 0 54 54" fill="none" xmlns="http://www.w3.org/2000/svg">
<path fill-rule="evenodd" clip-rule="evenodd" d="M9.32092 19.5823L33.0985 7.01798C34.2199 6.42538 35.6125 6.84848 36.2088 7.96301L42.9307 20.5266C43.527 21.6412 43.1012 23.0251 41.9798 23.6177L18.2022 36.182C17.0807 36.7746 15.6882 36.3515 15.0919 35.237L8.37 22.6734C7.77369 21.5588 8.19944 20.1749 9.32092 19.5823Z" fill="#3262C4"/>
<path fill-rule="evenodd" clip-rule="evenodd" d="M12.5301 19.6806L40.3265 12.23C41.5713 11.8964 42.8508 12.6353 43.1843 13.8806L47.17 28.7604C47.5035 30.0056 46.7648 31.2855 45.52 31.6192L17.7236 39.0698C16.4788 39.4034 15.1993 38.6645 14.8658 37.4193L10.8801 22.5394C10.5466 21.2942 11.2853 20.0143 12.5301 19.6806Z" fill="#5B90E9"/>
<path fill-rule="evenodd" clip-rule="evenodd" d="M7.82633 21.6001H46.1993C47.525 21.6001 48.5997 22.6513 48.5997 23.9479V23.9506L48.5733 46.255C48.5718 47.5506 47.4976 48.6001 46.173 48.6001H7.79997C6.47431 48.6001 5.39966 47.5489 5.39966 46.2523L5.39966 46.2496L5.42602 23.9452C5.42755 22.6496 6.50176 21.6001 7.82633 21.6001Z" fill="#8FBAFC"/>
<path fill-rule="evenodd" clip-rule="evenodd" d="M33.1714 29.7002H48.6V40.5002H33.1714C29.763 40.5002 27 38.1899 27 35.1694C27 32.1488 29.763 29.7002 33.1714 29.7002Z" fill="#D0E5FF"/>
<circle cx="32.3999" cy="35.0999" r="2.7" fill="#FF9333"/>
</svg>
