<svg width="54" height="54" viewBox="0 0 54 54" fill="none" xmlns="http://www.w3.org/2000/svg">
<path fill-rule="evenodd" clip-rule="evenodd" d="M5.4002 12.1499H48.6002C50.0914 12.1499 51.3002 13.3587 51.3002 14.8499V39.1499C51.3002 40.6411 50.0914 41.8499 48.6002 41.8499H5.4002C3.90903 41.8499 2.7002 40.6411 2.7002 39.1499V14.8499C2.7002 13.3587 3.90903 12.1499 5.4002 12.1499Z" fill="#D0E5FF"/>
<path fill-rule="evenodd" clip-rule="evenodd" d="M24.3002 35.1003C25.0458 35.1003 25.6502 35.7047 25.6502 36.4503C25.6502 37.1958 25.0458 37.8003 24.3002 37.8003H8.10024C7.35466 37.8003 6.75024 37.1958 6.75024 36.4503C6.75024 35.7047 7.35466 35.1003 8.10024 35.1003H24.3002ZM45.9003 29.7002C46.6459 29.7002 47.2503 30.3046 47.2503 31.0502C47.2503 31.7958 46.6459 32.4002 45.9003 32.4002H8.10035C7.35477 32.4002 6.75035 31.7958 6.75035 31.0502C6.75035 30.3046 7.35477 29.7002 8.10035 29.7002H45.9003Z" fill="#8FBAFC"/>
<path fill-rule="evenodd" clip-rule="evenodd" d="M40.5006 35.1001H45.9006C46.6462 35.1001 47.2506 35.7045 47.2506 36.4501C47.2506 37.1957 46.6462 37.8001 45.9006 37.8001H40.5006C39.7551 37.8001 39.1506 37.1957 39.1506 36.4501C39.1506 35.7045 39.7551 35.1001 40.5006 35.1001Z" fill="#5B90E9"/>
<path fill-rule="evenodd" clip-rule="evenodd" d="M8.10024 16.2002H14.8502C15.5958 16.2002 16.2002 16.8046 16.2002 17.5502V20.2502C16.2002 20.9958 15.5958 21.6002 14.8502 21.6002H8.10024C7.35466 21.6002 6.75024 20.9958 6.75024 20.2502V17.5502C6.75024 16.8046 7.35466 16.2002 8.10024 16.2002Z" fill="#5B90E9"/>
<ellipse cx="43.2009" cy="43.1999" rx="10.8" ry="10.8" fill="#FF9333"/>
<path fill-rule="evenodd" clip-rule="evenodd" d="M44.1231 49.7188L43.3798 49.9255C43.2617 49.9584 43.1369 49.9584 43.0188 49.9256L42.2748 49.7188C39.6252 48.9813 37.7993 46.7724 37.7993 43.9391C37.7993 41.5295 37.7993 40.0477 37.7993 39.4935C37.7993 39.1554 38.0732 38.8172 38.4743 38.8172C39.6407 38.8172 41.3779 38.1664 42.6972 36.6762C42.8214 36.5358 42.9888 36.4605 43.1993 36.4502C43.4125 36.4614 43.5802 36.5368 43.7022 36.6762C45.0316 38.1952 46.7475 38.8172 47.9243 38.8172C48.3512 38.8172 48.5993 39.1844 48.5993 39.4935C48.5993 39.9802 48.5993 41.4621 48.5993 43.9391C48.5993 46.7724 46.7727 48.9813 44.1231 49.7188ZM47.2487 43.9387V40.1251C45.8671 39.9472 44.3929 39.2388 43.1963 38.0992C42.0012 39.2243 40.517 39.9411 39.1487 40.1233V43.9387C39.1487 46.1008 40.5069 47.8227 42.6351 48.4151L43.1985 48.5717L43.7612 48.4152C45.8899 47.8226 47.2487 46.1005 47.2487 43.9387Z" fill="white"/>
</svg>
