<svg width="54" height="54" viewBox="0 0 54 54" fill="none" xmlns="http://www.w3.org/2000/svg">
<path fill-rule="evenodd" clip-rule="evenodd" d="M5.4002 12.1499H48.6002C50.0914 12.1499 51.3002 13.3587 51.3002 14.8499V39.1499C51.3002 40.6411 50.0914 41.8499 48.6002 41.8499H5.4002C3.90903 41.8499 2.7002 40.6411 2.7002 39.1499V14.8499C2.7002 13.3587 3.90903 12.1499 5.4002 12.1499Z" fill="#D0E5FF"/>
<path fill-rule="evenodd" clip-rule="evenodd" d="M8.10035 29.7002H45.9003C46.6459 29.7002 47.2503 30.3046 47.2503 31.0502C47.2503 31.7958 46.6459 32.4002 45.9003 32.4002H8.10035C7.35477 32.4002 6.75035 31.7958 6.75035 31.0502C6.75035 30.3046 7.35477 29.7002 8.10035 29.7002ZM8.10024 35.1003H24.3002C25.0458 35.1003 25.6502 35.7047 25.6502 36.4503C25.6502 37.1958 25.0458 37.8003 24.3002 37.8003H8.10024C7.35466 37.8003 6.75024 37.1958 6.75024 36.4503C6.75024 35.7047 7.35466 35.1003 8.10024 35.1003Z" fill="#8FBAFC"/>
<path fill-rule="evenodd" clip-rule="evenodd" d="M40.5006 35.1001H45.9006C46.6462 35.1001 47.2506 35.7045 47.2506 36.4501C47.2506 37.1957 46.6462 37.8001 45.9006 37.8001H40.5006C39.7551 37.8001 39.1506 37.1957 39.1506 36.4501C39.1506 35.7045 39.7551 35.1001 40.5006 35.1001Z" fill="#5B90E9"/>
<path fill-rule="evenodd" clip-rule="evenodd" d="M8.10024 16.2002H14.8502C15.5958 16.2002 16.2002 16.8046 16.2002 17.5502V20.2502C16.2002 20.9958 15.5958 21.6002 14.8502 21.6002H8.10024C7.35466 21.6002 6.75024 20.9958 6.75024 20.2502V17.5502C6.75024 16.8046 7.35466 16.2002 8.10024 16.2002Z" fill="#FF9333"/>
</svg>
