<svg width="54" height="54" viewBox="0 0 54 54" fill="none" xmlns="http://www.w3.org/2000/svg">
<path fill-rule="evenodd" clip-rule="evenodd" d="M13.4988 36.4502V41.8502C13.4988 43.3414 12.29 44.5502 10.7988 44.5502H8.09883C6.60767 44.5502 5.39883 43.3414 5.39883 41.8502V36.4502H13.4988ZM48.6 36.4502V41.8502C48.6 43.3414 47.3911 44.5502 45.9 44.5502H43.2C41.7088 44.5502 40.5 43.3414 40.5 41.8502V36.4502H48.6ZM47.9242 18.9004C49.0426 18.9004 49.9492 19.807 49.9492 20.9254C49.9492 22.0438 49.0426 22.9504 47.9242 22.9504H41.8492V18.9004H47.9242ZM12.1496 18.9005V22.9505H6.07456C4.95618 22.9505 4.04956 22.0439 4.04956 20.9255C4.04956 19.8729 4.85266 19.0079 5.87954 18.9098L6.07456 18.9005H12.1496Z" fill="#5B90E9"/>
<path fill-rule="evenodd" clip-rule="evenodd" d="M17.2339 9.4502H36.7678C38.2387 9.4502 39.5939 10.2476 40.3082 11.5333L45.9009 21.6002L47.9207 24.6299C48.3642 25.2952 48.6009 27.5506 48.6009 28.3502V39.1502H5.40088V28.3502C5.40088 27.5506 5.63755 25.2952 6.08108 24.6299L8.10088 21.6002L13.6936 11.5333C14.4079 10.2476 15.7631 9.4502 17.2339 9.4502Z" fill="#D0E5FF"/>
<path fill-rule="evenodd" clip-rule="evenodd" d="M12.1491 28.3499C13.6403 28.3499 14.8491 29.5587 14.8491 31.0499C14.8491 32.5411 13.6403 33.7499 12.1491 33.7499H10.7991C9.30795 33.7499 8.09912 32.5411 8.09912 31.0499C8.09912 29.5587 9.30795 28.3499 10.7991 28.3499H12.1491ZM43.1987 28.3499C44.6898 28.3499 45.8986 29.5587 45.8986 31.0499C45.8986 32.5411 44.6898 33.7499 43.1987 33.7499H41.8486C40.3575 33.7499 39.1487 32.5411 39.1487 31.0499C39.1487 29.5587 40.3575 28.3499 41.8486 28.3499H43.1987ZM36.1394 12.1499C37.1573 12.1499 38.0887 12.7224 38.5484 13.6306L43.2656 22.9499H10.7716L15.4514 13.6375C15.9097 12.7255 16.8432 12.1499 17.8639 12.1499H36.1394Z" fill="#8FBAFC"/>
<path fill-rule="evenodd" clip-rule="evenodd" d="M18.8996 31.0503H35.0996C35.8451 31.0503 36.4496 31.6547 36.4496 32.4003V33.7503C36.4496 34.4959 35.8451 35.1003 35.0996 35.1003H18.8996C18.154 35.1003 17.5496 34.4959 17.5496 33.7503V32.4003C17.5496 31.6547 18.154 31.0503 18.8996 31.0503Z" fill="#FF9333"/>
</svg>
